<svg width="525" height="589" viewBox="0 0 525 589" fill="none" xmlns="http://www.w3.org/2000/svg">
<g clip-path="url(#clip0_62_929)">
<mask id="mask0_62_929" style="mask-type:luminance" maskUnits="userSpaceOnUse" x="30" y="17" width="498" height="498">
<path d="M527.527 17.8086H30.3701V514.842H527.527V17.8086Z" fill="white"/>
</mask>
<g mask="url(#mask0_62_929)">
<path d="M409.13 29.9969C549.197 86.4275 701.444 279.701 645.054 419.867C588.663 560.034 345.067 593.908 205 537.477C64.9323 481.046 -2.84737 321.727 53.5434 181.56C109.855 41.4729 269.141 -26.4338 409.13 29.9969Z" fill="#FBE6D2"/>
</g>
<path d="M187.759 76.613C209.983 105.818 217.654 165.098 188.47 187.337C159.286 209.577 104.24 186.309 82.0159 157.104C59.7917 127.899 65.4862 86.1896 94.6702 64.0289C123.933 41.7099 165.613 47.4084 187.759 76.613Z" fill="#FFF3E9"/>
<mask id="mask1_62_929" style="mask-type:luminance" maskUnits="userSpaceOnUse" x="274" y="320" width="254" height="195">
<path d="M527.527 320.855H274.836V514.841H527.527V320.855Z" fill="white"/>
</mask>
<g mask="url(#mask1_62_929)">
<path d="M346.57 374.201C400.035 336.923 505.698 327.663 542.87 381.086C580.121 434.589 534.803 530.513 481.339 567.79C427.874 605.068 354.4 591.93 317.228 538.427C280.056 485.004 293.185 411.478 346.57 374.201Z" fill="#FFF3E9"/>
</g>
<mask id="mask2_62_929" style="mask-type:luminance" maskUnits="userSpaceOnUse" x="0" y="17" width="528" height="498">
<path d="M527.527 17.8086H0V514.842H527.527V17.8086Z" fill="white"/>
</mask>
<g mask="url(#mask2_62_929)">
<path d="M564.303 43.5293C551.649 47.9614 537.808 46.7743 524.442 45.8245C503.009 44.3208 481.26 43.6084 460.222 47.724C439.105 51.8396 417.039 60.9413 405.175 78.9073C399.165 88.009 401.616 101.543 410.316 108.033C414.35 110.961 420.677 112.148 423.841 108.27C426.134 105.421 425.581 101.068 423.445 98.1396C421.31 95.2112 417.988 93.3909 414.666 91.808C392.6 81.5982 363.812 81.4399 340.322 86.8218C315.646 92.4411 293.501 111.832 286.067 136.288C280.689 153.937 282.903 173.723 291.919 189.79C306.709 215.987 335.498 227.147 345.305 257.143C357.564 294.737 339.689 341.353 303.783 358.845C283.061 368.975 258.86 369.213 235.924 366.68C212.988 364.147 190.21 359.003 167.116 359.161C144.022 359.24 119.741 365.414 103.607 381.955C98.0709 387.574 93.4837 395.251 94.9864 402.929C96.4891 410.685 106.85 416.225 112.702 411.001C117.448 406.727 115.866 398.338 111.042 394.143C106.217 389.949 99.4945 388.999 93.0883 388.92C55.8371 388.445 15.8969 413.613 8.62069 451.84C2.45171 484.211 21.1168 514.998 48.9563 530.59" stroke="#F4BD90" stroke-width="2" stroke-miterlimit="10"/>
</g>
<mask id="mask3_62_929" style="mask-type:luminance" maskUnits="userSpaceOnUse" x="0" y="17" width="528" height="498">
<path d="M527.527 17.8086H0V514.842H527.527V17.8086Z" fill="white"/>
</mask>
<g mask="url(#mask3_62_929)">
<path d="M285.987 547.846C317.069 539.773 338.503 511.597 353.925 483.342C369.348 455.167 382.081 424.3 405.966 402.852C425.897 384.965 452.471 375.23 479.203 374.359C505.935 373.489 532.667 381.245 555.682 394.779" stroke="#F4BD90" stroke-width="2" stroke-miterlimit="10"/>
</g>
<mask id="mask4_62_929" style="mask-type:luminance" maskUnits="userSpaceOnUse" x="0" y="17" width="528" height="498">
<path d="M527.527 17.8086H0V514.842H527.527V17.8086Z" fill="white"/>
</mask>
<g mask="url(#mask4_62_929)">
<path d="M62.6388 6.64999C62.4806 30.077 50.5381 51.5254 42.2337 73.4487C33.9293 95.372 29.8167 121.886 43.5783 140.881C54.3344 155.681 74.265 162.092 92.3765 159.321C110.488 156.631 126.622 145.867 138.96 132.412C142.124 129.009 145.129 125.21 146.316 120.699C147.502 116.187 146.474 110.805 142.677 108.114C136.746 103.761 127.334 109.381 126.622 116.741C125.91 124.102 131.921 130.829 138.96 133.045C145.999 135.261 153.592 133.995 160.71 131.937C186.968 124.181 209.666 104.869 221.609 80.1761C233.551 55.4827 234.5 25.724 224.298 0.318359" stroke="#F4BD90" stroke-width="2" stroke-miterlimit="10"/>
</g>
<path d="M394.871 375.857C454.759 315.927 454.759 218.761 394.871 158.83C334.982 98.8997 237.885 98.8997 177.997 158.83C118.108 218.761 118.108 315.927 177.997 375.857C237.885 435.788 334.982 435.788 394.871 375.857Z" fill="#3F8EC3"/>
<mask id="mask5_62_929" style="mask-type:luminance" maskUnits="userSpaceOnUse" x="133" y="113" width="307" height="308">
<path d="M394.871 375.857C454.759 315.927 454.759 218.761 394.871 158.83C334.982 98.8997 237.885 98.8997 177.997 158.83C118.108 218.761 118.108 315.927 177.997 375.857C237.885 435.788 334.982 435.788 394.871 375.857Z" fill="white"/>
</mask>
<g mask="url(#mask5_62_929)">
<path d="M193.453 142.62L162.133 165.968L150.27 194.064L141.57 212.664L144.892 220.499L143.31 227.543L142.835 237.832L144.654 241.393V245.272L145.366 251.366L146.869 251.207L145.366 228.888L146.394 227.543L148.213 245.667L150.27 254.057L149.083 258.964L155.173 266.562L159.998 271.944L162.924 270.123L164.98 270.836L167.353 276.93H169.172L173.917 280.096L176.29 282.628L177.318 287.535L181.035 290.859C181.035 290.859 184.753 293.55 184.357 293.55C183.962 293.55 187.046 296.083 187.046 296.083L188.865 295.766L187.837 293.946L189.498 292.126L191.475 292.6L191.95 294.975L193.453 297.507L194.639 304.71L188.944 311.754L188.47 317.136L190.447 318.323L188.391 320.855L188.707 324.575L192.108 326.475L201.994 343.966L210.931 350.218L213.304 352.434L215.518 357.975L216.388 364.86L217.1 372.616L220.659 379.027L220.501 386.467C220.501 386.467 223.507 391.849 223.032 392.007C222.557 392.165 226.512 394.619 226.354 394.619C226.196 394.619 227.619 398.418 227.619 398.418L229.122 398.576L228.964 401.505L232.444 403.641L238.217 409.736L242.804 412.822L246.363 414.405L247.075 413.772L242.013 411.081L239.72 408.39L238.929 404.512C238.929 404.512 236.794 402.375 236.24 402.375C235.686 402.375 236.398 400.238 236.398 400.238L236.952 395.727L236.794 392.799L241.855 391.849L242.646 388.762L240.906 386.625H243.991H246.68L250.555 381.164L254.035 377.286L254.984 372.221L262.181 368.897H267.797L270.486 365.414L273.57 359.795L274.757 353.384L279.423 348.873L286.066 343.016V337.792L281.005 335.814L277.525 330.986L273.254 330.036L266.61 327.345L258.86 322.834L253.64 321.884C253.64 321.884 249.764 322.834 248.973 322.834C248.182 322.834 253.64 319.906 253.64 319.906V317.61L250.951 311.991L245.335 306.926L239.483 305.343L230.545 298.932L227.461 294.104H221.608L219.473 292.363L215.36 292.917L212.276 289.039L206.028 289.435L208.005 287.456L206.265 285.477L203.971 287.773L198.356 288.168L197.407 291.492L194.718 294.025L192.978 291.492L189.498 290.305L184.832 291.492L181.352 285.24L183.092 278.829L181.115 274.001C181.115 274.001 177.793 274.001 177.635 274.001C177.476 274.001 171.624 272.418 171.624 272.418L176.369 264.346L177.714 258.489H172.098L167.828 264.346H162.212L160.077 253.661L164.348 238.702L169.567 236.724L180.007 236.328L187.521 239.019L187.758 244.005L190.052 251.761L192.345 251.366L193.215 245.509L191.792 234.666L205.553 227.147L206.819 223.19L212.829 214.642L221.608 212.585L223.269 208.232L238.454 203.641L233.472 206.807L234.737 209.735L241.381 206.411L248.024 206.015L248.657 202.296L243.437 202.929L239.878 199.605L242.172 196.043L239.245 194.618H232.997L239.245 191.453L246.996 193.115L251.583 193.352L256.803 191.057L257.831 193.59L251.979 198.18L251.346 200.871L257.831 201.742L259.888 204.274L265.108 204.67L265.345 198.813L260.995 195.252L263.289 190.899L264.554 187.179L258.543 181.955C258.543 181.955 254.984 176.336 254.589 176.336C254.193 176.336 253.323 165.73 253.323 165.73L247.075 169.925L242.488 167.867L244.782 163.277L241.618 159.953L232.444 157.024L226.828 165.968L226.591 172.458L222.004 176.019L218.682 176.257L215.993 184.171L212.039 183.776L211.643 178.315L214.728 174.357L205.395 167.709L203.734 162.485L209.587 155.837L221.292 151.009L232.997 146.815L238.85 145.153L243.833 138.9L250.476 141.433L250.713 146.894L245.731 150.851L238.217 149.822C238.217 149.822 236.556 153.146 237.347 152.751C238.217 152.355 244.465 154.175 244.465 154.175L246.996 159.636L252.611 161.931L258.86 157.104L256.803 149.189L260.125 154.413L264.949 152.513L267.243 149.189L259.334 143.965L263.289 142.303L260.362 137.476L256.645 131.46L246.601 128.928H234.5H226.354L229.676 123.467L193.453 142.62Z" fill="#1B77AA"/>
</g>
<mask id="mask6_62_929" style="mask-type:luminance" maskUnits="userSpaceOnUse" x="133" y="113" width="307" height="308">
<path d="M394.871 375.857C454.759 315.927 454.759 218.761 394.871 158.83C334.982 98.8997 237.885 98.8997 177.997 158.83C118.108 218.761 118.108 315.927 177.997 375.857C237.885 435.788 334.982 435.788 394.871 375.857Z" fill="white"/>
</mask>
<g mask="url(#mask6_62_929)">
<path d="M282.903 112.386L270.328 113.415V115.868L268.351 117.531V120.617H279.265L282.903 124.258V129.956L280.926 134.151L284.564 135.417L279.819 137.396L280.214 141.432H283.457L287.411 139.454L283.852 144.757L279.107 146.577L277.05 151.642L278.87 156.628L281.796 166.126L285.355 169.766L288.202 168.817L290.97 172.695H294.608L297.693 165.572L301.331 162.96L303.545 158.211L309.003 156.233L316.912 154.412L320.708 151.326L328.221 150.534L334.232 151.326L338.582 147.447V142.54L336.763 137.95L338.582 137.238L340.085 133.043L334.074 126.474L333.125 122.279L335.656 116.422L332.018 114.76L325.453 113.415L325.849 111.278L314.143 108.35H306.314H293.501L292.236 106.529L282.903 112.386Z" fill="#1B77AA"/>
</g>
<mask id="mask7_62_929" style="mask-type:luminance" maskUnits="userSpaceOnUse" x="133" y="113" width="307" height="308">
<path d="M394.871 375.857C454.759 315.927 454.759 218.761 394.871 158.83C334.982 98.8997 237.885 98.8997 177.997 158.83C118.108 218.761 118.108 315.927 177.997 375.857C237.885 435.788 334.982 435.788 394.871 375.857Z" fill="white"/>
</mask>
<g mask="url(#mask7_62_929)">
<path d="M331.384 161.219L329.565 163.514L332.966 165.651V168.5L340.243 170.954L346.491 168.025V166.047L343.643 162.248L335.972 162.564L331.384 161.219Z" fill="#1B77AA"/>
</g>
<mask id="mask8_62_929" style="mask-type:luminance" maskUnits="userSpaceOnUse" x="133" y="113" width="307" height="308">
<path d="M394.871 375.857C454.759 315.927 454.759 218.761 394.871 158.83C334.982 98.8997 237.885 98.8997 177.997 158.83C118.108 218.761 118.108 315.927 177.997 375.857C237.885 435.788 334.982 435.788 394.871 375.857Z" fill="white"/>
</mask>
<g mask="url(#mask8_62_929)">
<path d="M342.378 402.533V400.396L346.807 398.655L348.547 394.618L350.841 393.036L352.422 388.762L358.433 382.747L360.411 373.882L365.551 369.45L371.404 363.435L373.144 359.161C374.884 357.578 374.884 357.578 374.884 357.578C374.884 357.578 376.307 350.851 376.307 350.297C376.307 349.743 374.726 345.153 374.726 345.153L374.884 342.303L378.601 337.317L380.895 335.022L379.867 331.46H374.726L374.409 327.899L371.562 324.891L366.579 326.87L359.303 327.187L355.981 325.92L352.818 325.604L348.784 327.741L344.355 323.15L339.768 318.006V313.415L335.893 307.717L333.916 303.839V299.565L338.186 293.708L337.87 286.268L336.605 284.527L339.926 279.937L343.485 275.663L344.514 272.497L347.203 271.468L349.18 267.194L357.484 264.424L356.614 259.438L359.936 256.272L363.811 254.135L366.263 249.703H367.133L368.399 251.919L374.488 252.948L378.997 250.653L384.058 249.782L391.414 250.416L395.922 249.782L397.978 252.711L397.108 254.294L398.69 255.956L396.396 259.596L400.193 262.604L405.412 264.424V267.274L410.632 271.706L412.689 270.123L411.898 265.611L416.169 265.057L418.62 268.144L423.682 272.022L425.738 269.964L427.32 271.547L428.902 271.389L430.958 265.057V257.143L428.269 258.963L422.021 255.956L419.965 244.559L416.089 245.588L418.541 251.286L416.959 256.351L415.14 255.085L410.87 244.559V239.493L400.193 228.651L398.611 231.104L402.091 235.932L403.277 237.99C403.277 237.99 410.237 244.48 410.237 244.559C410.237 244.638 409.762 245.746 409.762 245.746C409.762 245.746 407.469 244.163 407.548 244.242C407.627 244.242 407.39 245.588 407.39 245.588L408.26 247.883L406.52 250.89L405.808 250.178L405.571 245.35L399.56 239.414L395.763 232.845L393.154 230.708L392.046 231.025L391.888 232.37L389.99 233.874L388.25 233.32L384.849 232.212L383.584 233.637L384.296 235.615L383.109 237.673L379.787 237.831L379.629 239.81L377.889 241.156L378.127 243.213L379.313 244.4L374.251 248.437L369.664 247.962L368.082 248.12L367.054 249.307H366.263L363.732 245.429L359.62 245.35L360.094 241.789L358.987 240.997L359.303 238.781L360.252 237.99L360.094 230.233L359.066 229.046L359.699 228.334L361.755 228.097L361.913 227.226L364.286 228.097L368.636 229.284L375.279 230.313L375.2 222.002L373.223 220.973L372.828 218.916L368.161 217.491L367.845 215.196L371.088 214.721L372.037 215.433L373.618 215.512L372.432 213.059L373.302 212.584L375.042 214.167L376.545 214.246L378.364 212.347L378.759 210.447L381.369 209.656L383.267 205.144L389.041 204.195L388.013 201.425L385.719 197.626L386.352 194.381L388.013 192.956L388.804 194.776L389.199 196.834L390.227 196.992L389.12 198.496L392.284 204.432L393.865 202.928L396.633 204.986L399.797 203.245L401.616 202.77L403.514 204.907L405.254 203.166L402.723 198.813L402.802 195.568L403.91 195.251L402.644 191.531L404.305 190.423L407.231 191.136L406.915 188.999L404.859 187.337L402.407 188.84L399.718 187.653L395.131 179.58L395.368 174.515L393.707 172.062H391.493L392.046 174.04L393.47 177.443L391.967 178.552L391.651 181.084L394.024 185.833L396.713 188.049L396.95 190.898L395.526 192.006L397.345 195.093L397.741 198.496L395.763 198.892L395.526 200.554L394.182 200.237L392.125 198.18L391.809 196.359L386.826 188.049L384.454 191.373L382.318 191.215L379.55 188.761L377.968 184.804L376.149 180.293L378.997 176.019L381.053 172.853L380.104 164.78L380.499 158.844L383.426 156.074L387.617 157.815L388.725 160.19H390.781L391.967 162.01L401.853 169.608L404.701 161.377L434.913 212.426L441.952 259.28L438.788 298.219L424.789 339.138L417.75 342.303L408.655 352.988L403.514 359.082L399.797 366.364L389.595 377.76L385.64 379.106L378.759 384.013L377.019 386.783L368.557 392.086L360.331 396.835L358.196 399.763L344.83 402.454H342.378V402.533Z" fill="#1B77AA"/>
</g>
<mask id="mask9_62_929" style="mask-type:luminance" maskUnits="userSpaceOnUse" x="133" y="113" width="307" height="308">
<path d="M394.871 375.857C454.759 315.927 454.759 218.761 394.871 158.83C334.982 98.8997 237.885 98.8997 177.997 158.83C118.108 218.761 118.108 315.927 177.997 375.857C237.885 435.788 334.982 435.788 394.871 375.857Z" fill="white"/>
</mask>
<g mask="url(#mask9_62_929)">
<path d="M363.416 187.021L361.28 190.504L362.308 192.166L364.048 195.807H358.908L358.196 198.339H355.27L355.981 201.109H357.879L355.27 204.987L357.879 206.333L363.653 205.146V201.505L364.048 199.368L364.839 197.073L368.557 198.339L368.952 202.138L366.342 202.771L367.291 204.513L366.026 206.333L366.579 207.916L370.059 208.391L366.263 209.578L366.026 211.636H368.873L371.799 210.29L376.94 211.003L378.601 209.578L377.019 208.391L377.889 205.7L374.726 204.117L373.065 199.368L369.11 194.936L369.822 190.425L366.026 189.792L366.975 187.813L363.416 187.021Z" fill="#1B77AA"/>
</g>
<path d="M100.365 230.787C105.11 231.974 109.855 229.046 110.963 224.456C111.991 219.865 109.064 215.275 104.398 214.088C99.7319 212.98 94.9865 215.75 93.8792 220.34C92.6929 224.93 95.6192 229.6 100.365 230.787Z" fill="#F4BD90"/>
<path d="M130.814 255.086C125.278 249.862 119.821 244.48 114.443 239.019C112.149 236.724 109.223 235.062 105.98 234.349C101.076 233.241 98.6247 232.608 93.7211 231.421C90.4785 230.63 87.1567 230.709 84.0722 231.738C76.796 234.112 69.5198 236.407 62.1644 238.544C59.3172 239.336 57.8145 242.185 58.7636 244.955C58.9218 245.351 59.0009 245.588 59.159 245.984C60.1081 248.675 63.2717 250.258 66.1189 249.387C72.6043 247.488 79.0896 245.43 85.4958 243.372C83.6768 250.337 82.8068 253.819 81.0668 260.863C73.8697 267.511 66.5144 274.001 59.0009 280.333C56.0745 282.866 55.9955 287.219 59.0009 290.068C62.0063 292.917 66.9098 293.154 69.8361 290.543C76.796 284.449 83.7559 278.196 90.4785 271.785C93.6421 280.491 96.9638 289.197 100.365 297.824C101.788 301.465 106.217 303.443 110.172 302.335C114.126 301.148 116.103 297.27 114.601 293.709C110.884 284.607 107.325 275.505 103.924 266.324C105.505 259.28 106.296 255.798 107.878 248.754C112.624 253.582 117.448 258.251 122.352 262.921C124.487 264.979 127.967 265.058 130.023 263.079C130.34 262.763 130.498 262.604 130.814 262.367C132.95 260.388 132.95 257.143 130.814 255.086Z" fill="#F4BD90"/>
<path d="M161.026 242.817C165.851 243.608 170.359 240.363 171.071 235.693C171.782 231.024 168.461 226.671 163.715 225.879C158.97 225.167 154.541 228.254 153.75 232.923C152.88 237.593 156.123 242.025 161.026 242.817Z" fill="white"/>
<path d="M193.058 264.66C187.126 259.832 181.273 255.004 175.579 249.939C173.127 247.802 170.042 246.378 166.8 245.903C161.817 245.19 159.365 244.795 154.462 243.924C151.219 243.37 147.897 243.766 144.892 245.032C137.853 247.96 130.814 250.81 123.696 253.58C120.928 254.609 119.662 257.616 120.849 260.228C121.007 260.624 121.086 260.782 121.323 261.178C122.51 263.79 125.752 265.056 128.52 264.027C134.848 261.573 141.096 259.041 147.265 256.429C145.999 263.552 145.446 267.114 144.18 274.158C137.537 281.36 130.735 288.404 123.854 295.369C121.086 298.139 121.402 302.492 124.645 305.103C127.888 307.715 132.712 307.557 135.401 304.708C141.887 298.06 148.214 291.253 154.462 284.446C158.258 292.915 162.213 301.304 166.325 309.694C168.065 313.176 172.573 314.838 176.449 313.414C180.324 311.91 181.906 307.874 180.166 304.47C175.737 295.685 171.466 286.9 167.353 278.036C168.382 270.913 168.856 267.351 169.884 260.228C174.946 264.66 180.166 269.013 185.386 273.208C187.679 275.107 191.08 274.87 193.058 272.733C193.374 272.416 193.453 272.258 193.769 271.942C195.667 269.725 195.351 266.56 193.058 264.66Z" fill="white"/>
<path d="M222.162 250.099C227.066 250.494 231.257 246.933 231.574 242.184C231.89 237.435 228.252 233.399 223.507 233.003C218.761 232.608 214.569 236.09 214.095 240.839C213.699 245.508 217.258 249.703 222.162 250.099Z" fill="#F4BD90"/>
<path d="M255.775 269.332C249.527 265.058 243.279 260.626 237.189 256.036C234.579 254.136 231.416 252.949 228.173 252.711C223.19 252.395 220.66 252.157 215.677 251.762C212.434 251.445 209.112 252.157 206.265 253.582C199.543 257.064 192.662 260.468 185.86 263.792C183.25 265.058 182.143 268.145 183.567 270.598C183.804 270.994 183.883 271.152 184.041 271.548C185.386 274.081 188.707 275.11 191.396 273.764C197.486 270.836 203.497 267.828 209.429 264.742C208.796 271.944 208.401 275.505 207.768 282.708C201.678 290.385 195.509 297.983 189.182 305.422C186.651 308.43 187.363 312.704 190.764 314.999C194.165 317.294 198.989 316.74 201.441 313.733C207.373 306.609 213.146 299.328 218.841 291.968C223.27 300.12 227.857 308.192 232.602 316.186C234.579 319.51 239.246 320.856 242.963 319.114C246.68 317.373 248.025 313.179 245.968 309.854C240.906 301.465 236.003 292.996 231.178 284.449C231.653 277.247 231.89 273.685 232.365 266.483C237.743 270.44 243.279 274.397 248.815 278.196C251.267 279.858 254.668 279.383 256.408 277.088C256.645 276.772 256.803 276.613 257.041 276.218C258.781 274.16 258.227 270.994 255.775 269.332Z" fill="#F4BD90"/>
<path d="M283.615 252.473C288.519 252.473 292.394 248.595 292.394 243.847C292.315 239.098 288.44 235.299 283.694 235.299C278.949 235.299 274.994 239.098 274.915 243.847C274.836 248.595 278.712 252.473 283.615 252.473Z" fill="white"/>
<path d="M318.652 269.014C312.087 265.215 305.523 261.258 299.117 257.221C296.349 255.48 293.106 254.609 289.863 254.609C284.881 254.609 282.35 254.609 277.367 254.609C274.124 254.609 270.882 255.48 268.114 257.221C261.628 261.258 255.143 265.136 248.578 269.014C246.048 270.518 245.257 273.604 246.839 275.979C247.076 276.295 247.155 276.533 247.392 276.849C248.974 279.224 252.296 280.015 254.906 278.511C260.679 275.108 266.453 271.626 272.226 268.064C272.147 275.266 272.068 278.907 271.989 286.109C266.532 294.261 260.996 302.255 255.222 310.249C252.928 313.414 253.957 317.609 257.516 319.667C261.075 321.725 265.82 320.775 268.034 317.609C273.333 310.011 278.553 302.334 283.694 294.578C288.756 302.334 293.976 310.011 299.275 317.609C301.489 320.775 306.235 321.725 309.794 319.667C313.353 317.609 314.381 313.335 312.087 310.249C306.393 302.334 300.778 294.261 295.399 286.109C295.32 278.907 295.241 275.266 295.162 268.064C300.857 271.626 306.63 275.108 312.404 278.511C314.935 280.015 318.335 279.224 319.917 276.849C320.154 276.533 320.234 276.295 320.471 275.979C321.974 273.683 321.183 270.518 318.652 269.014Z" fill="white"/>
<path d="M345.068 250.02C349.971 249.624 353.53 245.43 353.135 240.76C352.739 236.011 348.547 232.608 343.723 232.925C338.978 233.32 335.34 237.357 335.656 242.106C335.972 246.854 340.164 250.416 345.068 250.02Z" fill="#F4BD90"/>
<path d="M381.29 263.871C374.41 260.626 367.608 257.222 360.885 253.661C357.959 252.157 354.716 251.524 351.474 251.761C346.491 252.157 343.96 252.395 338.977 252.711C335.735 252.949 332.571 254.057 329.961 256.035C323.871 260.547 317.623 264.979 311.375 269.253C309.003 270.915 308.449 274.08 310.189 276.376C310.426 276.692 310.584 276.851 310.822 277.246C312.562 279.541 315.962 280.016 318.414 278.354C323.95 274.555 329.408 270.598 334.865 266.641C335.339 273.843 335.577 277.405 335.972 284.607C331.148 293.154 326.244 301.623 321.182 309.933C319.205 313.257 320.471 317.373 324.188 319.193C327.905 320.935 332.571 319.668 334.548 316.344C339.294 308.35 343.881 300.278 348.31 292.126C354.004 299.486 359.778 306.688 365.71 313.891C368.161 316.898 372.986 317.452 376.387 315.157C379.788 312.862 380.42 308.509 377.969 305.58C371.641 298.141 365.472 290.543 359.383 282.866C358.75 275.663 358.354 272.102 357.722 264.9C363.653 267.986 369.743 270.994 375.754 273.922C378.443 275.188 381.686 274.16 383.109 271.706C383.347 271.31 383.426 271.152 383.584 270.756C385.008 268.145 383.979 265.137 381.29 263.871Z" fill="#F4BD90"/>
<path d="M406.204 242.817C411.028 242.025 414.35 237.593 413.559 232.923C412.768 228.254 408.339 225.167 403.594 225.879C398.848 226.592 395.606 230.945 396.238 235.693C396.871 240.363 401.379 243.608 406.204 242.817Z" fill="white"/>
<path d="M443.534 253.66C436.416 250.969 429.298 248.12 422.338 245.112C419.333 243.846 416.011 243.45 412.768 244.004C407.786 244.796 405.334 245.191 400.43 245.983C397.188 246.458 394.103 247.882 391.651 250.019C385.878 255.005 380.025 259.912 374.173 264.661C371.879 266.481 371.563 269.726 373.54 271.863C373.856 272.18 373.935 272.338 374.252 272.655C376.15 274.792 379.63 275.029 381.923 273.13C387.143 268.856 392.284 264.503 397.425 260.15C398.453 267.273 398.928 270.834 399.956 278.037C395.843 286.901 391.572 295.765 387.143 304.471C385.403 307.954 387.064 311.99 390.86 313.494C394.736 314.998 399.244 313.336 400.984 309.774C405.096 301.464 409.051 292.995 412.847 284.606C419.095 291.491 425.422 298.219 431.908 304.946C434.597 307.716 439.5 307.954 442.664 305.342C445.907 302.73 446.223 298.377 443.455 295.607C436.574 288.642 429.772 281.598 423.129 274.396C421.943 267.273 421.31 263.711 420.044 256.667C426.292 259.279 432.541 261.812 438.789 264.265C441.557 265.373 444.799 264.028 445.986 261.416C446.144 261.02 446.223 260.862 446.46 260.466C447.568 257.696 446.302 254.768 443.534 253.66Z" fill="white"/>
<path d="M466.787 230.787C471.532 229.679 474.458 224.93 473.351 220.34C472.165 215.75 467.498 212.98 462.832 214.088C458.166 215.196 455.239 219.786 456.268 224.456C457.296 229.046 462.041 231.895 466.787 230.787Z" fill="#F4BD90"/>
<path d="M504.987 238.622C497.631 236.485 490.355 234.19 483.079 231.816C479.994 230.787 476.594 230.708 473.43 231.499C468.526 232.686 466.075 233.32 461.171 234.428C457.928 235.14 455.002 236.802 452.709 239.097C447.33 244.558 441.873 249.861 436.337 255.085C434.202 257.063 434.122 260.308 436.258 262.287C436.574 262.603 436.732 262.762 437.049 262.999C439.184 264.978 442.585 264.899 444.72 262.841C449.624 258.171 454.448 253.422 459.194 248.674C460.776 255.718 461.567 259.2 463.148 266.244C459.747 275.425 456.109 284.527 452.392 293.628C450.889 297.19 452.867 301.147 456.821 302.255C460.776 303.442 465.205 301.385 466.628 297.744C470.029 289.117 473.351 280.411 476.514 271.705C483.316 278.037 490.197 284.289 497.157 290.463C500.083 293.074 504.987 292.837 507.992 289.988C510.997 287.138 510.997 282.785 508.071 280.253C500.637 273.842 493.281 267.352 486.084 260.704C484.265 253.739 483.395 250.257 481.655 243.213C488.062 245.35 494.547 247.328 501.032 249.307C503.879 250.178 506.964 248.595 507.992 245.904C508.15 245.508 508.229 245.271 508.387 244.875C509.337 242.342 507.834 239.414 504.987 238.622Z" fill="#F4BD90"/>
</g>
<defs>
<clipPath id="clip0_62_929">
<rect width="525" height="589" fill="white"/>
</clipPath>
</defs>
</svg>
