<svg width="551" height="484" viewBox="0 0 551 484" fill="none" xmlns="http://www.w3.org/2000/svg">
<path d="M130.567 128.691C130.567 236.725 278.778 292.291 278.778 292.291C278.778 292.291 426.988 236.725 426.988 128.691C426.988 82.6269 391.149 45.3418 346.944 45.3418C318.128 45.3418 292.927 61.2473 278.778 85.0024C264.628 61.2473 239.427 45.3418 210.611 45.3418C166.406 45.3418 130.567 82.6269 130.567 128.691Z" fill="url(#paint0_radial_0_1722)"/>
<g opacity="0.36">
<path d="M130.567 128.691C130.567 236.725 278.778 292.291 278.778 292.291C278.778 292.291 426.988 236.725 426.988 128.691C426.988 82.6269 391.149 45.3418 346.944 45.3418C318.128 45.3418 292.927 61.2473 278.778 85.0024C264.628 61.2473 239.427 45.3418 210.611 45.3418C166.406 45.3418 130.567 82.6269 130.567 128.691Z" fill="#FF4444"/>
</g>
<path d="M253.473 221.439C253.783 221.439 254.093 221.232 254.093 220.923L271.238 28.4035L289.416 171.14C289.416 171.45 289.726 171.657 290.036 171.657H352.728L359.545 186.323C359.648 186.529 359.958 186.736 360.165 186.633C360.474 186.633 360.681 186.426 360.681 186.116L367.704 150.071L382.164 216.585C382.267 216.895 382.474 217.101 382.783 217.101C383.093 217.101 383.3 216.895 383.403 216.585L390.736 129.001L402.924 170.624C403.027 170.934 403.233 171.037 403.543 171.037H479.456C479.766 171.037 480.076 170.727 480.076 170.417C480.076 170.107 479.766 169.798 479.456 169.798H403.956L391.046 125.386C390.943 125.076 390.736 124.973 390.426 124.973C390.116 124.973 389.91 125.283 389.91 125.489L382.68 212.35L368.427 146.869C368.324 146.559 368.117 146.352 367.807 146.352C367.498 146.352 367.291 146.559 367.188 146.869L359.958 183.947L353.761 170.727C353.658 170.521 353.451 170.417 353.245 170.417H290.655L271.754 22.5164C271.754 22.2066 271.445 22 271.135 22C270.825 22 270.515 22.2066 270.515 22.5164L253.267 216.378L232.61 107.725C232.507 107.415 232.3 107.208 231.991 107.208C231.681 107.208 231.474 107.415 231.371 107.725L221.766 170.934H190.368C190.161 170.934 189.851 171.14 189.748 171.347L180.969 195.308L170.124 150.587C170.021 150.277 169.814 150.174 169.608 150.071C169.298 150.071 169.091 150.174 168.988 150.484L160.932 170.934H109.601C109.291 170.934 109.601 171.244 109.601 171.553C109.601 171.863 109.291 172.173 109.601 172.173H161.242C161.449 172.173 161.758 172.07 161.862 171.76L169.401 152.756L180.349 197.581C180.453 197.89 180.659 197.994 180.866 198.097C181.176 198.097 181.382 197.994 181.485 197.684L190.781 172.173H222.282C222.592 172.173 222.798 171.967 222.902 171.657L232.094 111.443L252.854 220.923C252.957 221.232 253.164 221.439 253.473 221.439Z" fill="url(#paint1_linear_0_1722)"/>
<path d="M416.764 215.654C416.764 229.598 435.871 236.827 435.871 236.827C435.871 236.827 454.978 229.598 454.978 215.654C454.978 209.664 450.331 204.913 444.65 204.913C440.932 204.913 437.627 206.979 435.871 210.077C434.012 206.979 430.81 204.913 427.092 204.913C421.411 204.913 416.764 209.767 416.764 215.654Z" fill="url(#paint2_radial_0_1722)"/>
<g opacity="0.36">
<path d="M416.764 215.654C416.764 229.598 435.871 236.827 435.871 236.827C435.871 236.827 454.978 229.598 454.978 215.654C454.978 209.664 450.331 204.913 444.65 204.913C440.932 204.913 437.627 206.979 435.871 210.077C434.012 206.979 430.81 204.913 427.092 204.913C421.411 204.913 416.764 209.767 416.764 215.654Z" fill="#FF0909"/>
</g>
<path d="M103.094 215.654C103.094 229.598 122.201 236.827 122.201 236.827C122.201 236.827 141.308 229.598 141.308 215.654C141.308 209.664 136.661 204.913 130.98 204.913C127.262 204.913 123.957 206.979 122.201 210.077C120.342 206.979 117.14 204.913 113.422 204.913C107.741 204.913 103.094 209.767 103.094 215.654Z" fill="url(#paint3_radial_0_1722)"/>
<g opacity="0.36">
<path d="M103.094 215.654C103.094 229.598 122.201 236.827 122.201 236.827C122.201 236.827 141.308 229.598 141.308 215.654C141.308 209.664 136.661 204.913 130.98 204.913C127.262 204.913 123.957 206.979 122.201 210.077C120.342 206.979 117.14 204.913 113.422 204.913C107.741 204.913 103.094 209.767 103.094 215.654Z" fill="#FF0909"/>
</g>
<mask id="mask0_0_1722" style="mask-type:luminance" maskUnits="userSpaceOnUse" x="41" y="217" width="469" height="246">
<path d="M509.284 462.184L509.284 217.197L40.9998 217.197L40.9998 462.184L509.284 462.184Z" fill="white"/>
</mask>
<g mask="url(#mask0_0_1722)">
<path d="M389.054 492.606C389.024 492.642 388.995 492.676 388.968 492.709C388.761 492.57 388.486 492.386 388.153 492.161C387.436 491.676 386.449 491.005 385.285 490.211C382.957 488.624 379.92 486.545 376.906 484.48C373.891 482.414 370.9 480.362 368.661 478.825C367.542 478.057 366.611 477.418 365.96 476.971L365.382 476.574C365.405 476.533 365.43 476.489 365.457 476.443C365.681 476.052 366.015 475.476 366.452 474.739C367.326 473.263 368.61 471.142 370.252 468.559C373.538 463.393 378.252 456.386 383.97 449.019C395.43 434.256 410.833 418.165 426.773 412.443C442.734 406.783 460.139 411.227 469.924 418.62C474.828 422.325 477.698 426.675 477.681 430.755C477.665 434.761 474.853 438.793 467.724 441.895C446.321 445.294 426.55 458.113 412.156 470.039C404.943 476.015 399.065 481.78 394.99 486.051C392.952 488.187 391.364 489.95 390.285 491.181C389.745 491.796 389.332 492.278 389.054 492.606Z" fill="url(#paint4_linear_0_1722)" stroke="white" stroke-width="1.17266"/>
<path d="M460.04 422.116C460.04 422.116 417.901 419.637 371.94 482.433" stroke="white" stroke-width="0.850411" stroke-miterlimit="10"/>
<path d="M386.988 484.038C386.966 484.178 386.946 484.303 386.93 484.411C384.698 484.311 375.656 483.83 366.678 483.347C361.643 483.075 356.64 482.804 352.896 482.601C351.024 482.499 349.467 482.415 348.378 482.355L347.204 482.291C347.2 482.173 347.197 482.035 347.193 481.879C347.176 481.257 347.157 480.339 347.142 479.156C347.113 476.791 347.104 473.369 347.186 469.148C347.35 460.705 347.879 449.066 349.335 436.282C352.252 410.675 358.877 380.618 373.635 362.376C388.371 344.211 412.132 336.942 429.035 338.642C437.501 339.493 444.092 342.574 447.055 347.481C449.979 352.324 449.506 359.198 443.285 368.011C420.58 387.324 406.481 416.566 398.058 440.93C393.84 453.13 391.039 464.127 389.293 472.074C388.419 476.048 387.809 479.26 387.418 481.48C387.222 482.59 387.08 483.452 386.988 484.038Z" fill="url(#paint5_linear_0_1722)" stroke="white" stroke-width="1.17266"/>
<path d="M419.966 350.025C419.966 350.025 368.531 377.292 359.339 484.19" stroke="white" stroke-width="1.17266" stroke-miterlimit="10"/>
<path d="M192.1 476.443C192.126 476.489 192.151 476.533 192.175 476.574L191.596 476.971C190.945 477.418 190.014 478.057 188.895 478.826C186.657 480.362 183.665 482.414 180.651 484.48C177.636 486.546 174.6 488.624 172.272 490.211C171.107 491.005 170.121 491.676 169.403 492.161C169.07 492.386 168.796 492.571 168.589 492.709C168.561 492.677 168.533 492.643 168.502 492.607C168.224 492.278 167.812 491.796 167.272 491.181C166.193 489.951 164.605 488.188 162.567 486.052C158.492 481.78 152.614 476.016 145.401 470.04C131.006 458.113 111.235 445.294 89.8326 441.895C82.7039 438.794 79.8918 434.762 79.8755 430.756C79.8588 426.675 82.7283 422.326 87.6325 418.62C97.4178 411.227 114.823 406.784 130.783 412.443C146.723 418.166 162.127 434.256 173.586 449.019C179.304 456.386 184.019 463.393 187.304 468.559C188.947 471.142 190.231 473.264 191.105 474.739C191.541 475.476 191.875 476.052 192.1 476.443Z" fill="url(#paint6_linear_0_1722)" stroke="white" stroke-width="1.17266"/>
<path d="M97.5166 422.116C97.5166 422.116 139.656 419.637 185.617 482.433" stroke="white" stroke-width="0.850411" stroke-miterlimit="10"/>
<path d="M210.261 481.879C210.257 482.035 210.253 482.173 210.249 482.291L209.08 482.355C207.993 482.415 206.439 482.499 204.572 482.601C200.836 482.804 195.843 483.075 190.814 483.347C181.827 483.831 172.766 484.313 170.524 484.412C170.507 484.303 170.488 484.179 170.465 484.038C170.373 483.452 170.232 482.59 170.036 481.48C169.644 479.26 169.034 476.048 168.161 472.074C166.414 464.127 163.613 453.13 159.395 440.93C150.972 416.566 136.873 387.324 114.168 368.011C107.947 359.198 107.474 352.324 110.398 347.481C113.361 342.574 119.953 339.493 128.418 338.642C145.321 336.942 169.082 344.211 183.819 362.376C198.576 380.618 205.201 410.675 208.118 436.282C209.575 449.066 210.103 460.705 210.267 469.148C210.35 473.369 210.341 476.791 210.311 479.156C210.297 480.339 210.277 481.257 210.261 481.879Z" fill="url(#paint7_linear_0_1722)" stroke="white" stroke-width="1.17266"/>
<path d="M137.59 350.025C137.59 350.025 189.025 377.292 198.217 484.19" stroke="white" stroke-width="1.17266" stroke-miterlimit="10"/>
<path d="M396.314 304.58L420.896 264.92C422.238 262.751 421.412 259.962 419.036 259.033C416.558 258 413.046 257.896 409.018 261.924C401.169 269.774 370.7 309.538 372.249 309.538C373.695 309.434 396.314 304.58 396.314 304.58Z" fill="#6EAFAC"/>
<path d="M286.731 485.945C286.731 485.945 288.177 354.879 286.731 334.222C285.285 313.566 296.337 302.515 311.003 298.9C325.772 295.181 350.044 290.017 361.095 282.684C372.146 279.689 369.977 296.627 361.818 301.792C353.762 306.956 341.988 310.674 338.992 314.289C335.997 318.007 333.828 323.894 333.828 323.894C333.828 323.894 341.161 316.561 349.321 313.566C357.377 310.571 364.813 306.233 378.756 301.792C392.699 297.35 392.699 297.35 392.699 297.35C392.699 297.35 417.694 270.807 425.13 265.643C432.566 260.478 437.627 264.197 437.627 268.638C437.627 273.079 408.915 305.406 404.474 311.294C400.032 317.181 357.377 340.729 353.658 345.893C349.94 351.057 350.663 485.015 350.663 485.015L286.731 485.945Z" fill="url(#paint8_linear_0_1722)"/>
<path d="M160.829 304.58L136.248 264.92C134.905 262.751 135.732 259.962 138.107 259.033C140.586 258 144.098 257.896 148.126 261.924C155.975 269.774 186.443 309.538 184.894 309.538C183.448 309.434 160.829 304.58 160.829 304.58Z" fill="#6EAFAC"/>
<path d="M270.412 485.945C270.412 485.945 268.966 354.879 270.412 334.222C271.858 313.566 260.807 302.515 246.141 298.9C231.371 295.181 207.1 290.017 196.049 282.684C184.997 279.689 187.166 296.627 195.326 301.792C203.382 306.956 215.156 310.674 218.151 314.289C221.146 318.007 223.315 323.894 223.315 323.894C223.315 323.894 215.982 316.561 207.823 313.566C199.767 310.571 192.33 306.233 178.387 301.792C164.444 297.35 164.444 297.35 164.444 297.35C164.444 297.35 139.45 270.807 132.013 265.643C124.68 260.478 119.516 264.197 119.516 268.638C119.516 273.079 148.229 305.406 152.67 311.294C157.111 317.181 199.767 340.729 203.485 345.893C207.203 351.057 206.48 485.015 206.48 485.015L270.412 485.945Z" fill="url(#paint9_linear_0_1722)"/>
</g>
<path d="M549 274.5C549 426.102 425.102 483.5 273.5 483.5C121.898 483.5 0 426.102 0 274.5C0 122.898 122.898 0 274.5 0C426.102 0 549 122.898 549 274.5Z" fill="#0B6FC0" fill-opacity="0.07"/>
<circle cx="3.5" cy="190.5" r="3.5" fill="#FFB851"/>
<circle cx="23" cy="348" r="5" fill="#9197B3"/>
<circle cx="15.5" cy="362.5" r="2.5" fill="#D9D9D9"/>
<circle cx="382.5" cy="45.5" r="7.5" fill="#0C74C2" fill-opacity="0.17"/>
<circle cx="547.5" cy="143.5" r="3.5" fill="#0B6FC0"/>
<defs>
<radialGradient id="paint0_radial_0_1722" cx="0" cy="0" r="1" gradientUnits="userSpaceOnUse" gradientTransform="translate(224.183 91.9417) rotate(180) scale(173.952 173.952)">
<stop stop-color="#DE5056"/>
<stop offset="1" stop-color="#A32233"/>
</radialGradient>
<linearGradient id="paint1_linear_0_1722" x1="480.056" y1="121.737" x2="109.494" y2="121.737" gradientUnits="userSpaceOnUse">
<stop stop-color="white" stop-opacity="0"/>
<stop offset="0.5223" stop-color="#FFFFF5"/>
<stop offset="1" stop-color="#FFFFF5" stop-opacity="0"/>
</linearGradient>
<radialGradient id="paint2_radial_0_1722" cx="0" cy="0" r="1" gradientUnits="userSpaceOnUse" gradientTransform="translate(428.874 210.933) rotate(180) scale(22.4697 22.4697)">
<stop stop-color="#DE5056"/>
<stop offset="1" stop-color="#A32233"/>
</radialGradient>
<radialGradient id="paint3_radial_0_1722" cx="0" cy="0" r="1" gradientUnits="userSpaceOnUse" gradientTransform="translate(115.222 210.933) rotate(180) scale(22.4697 22.4697)">
<stop stop-color="#DE5056"/>
<stop offset="1" stop-color="#A32233"/>
</radialGradient>
<linearGradient id="paint4_linear_0_1722" x1="381.451" y1="477.237" x2="477.72" y2="402.158" gradientUnits="userSpaceOnUse">
<stop offset="0.0106952" stop-color="#437D7C"/>
<stop offset="1" stop-color="#6EAFAC"/>
</linearGradient>
<linearGradient id="paint5_linear_0_1722" x1="366.899" y1="471.373" x2="426.519" y2="313.935" gradientUnits="userSpaceOnUse">
<stop offset="0.00534759" stop-color="#4E9492"/>
<stop offset="1" stop-color="#6EAFAC"/>
</linearGradient>
<linearGradient id="paint6_linear_0_1722" x1="176.083" y1="477.238" x2="79.8129" y2="402.158" gradientUnits="userSpaceOnUse">
<stop offset="0.0106952" stop-color="#437D7C"/>
<stop offset="1" stop-color="#6EAFAC"/>
</linearGradient>
<linearGradient id="paint7_linear_0_1722" x1="190.634" y1="471.373" x2="131.014" y2="313.936" gradientUnits="userSpaceOnUse">
<stop offset="0.00534759" stop-color="#4E9C92"/>
<stop offset="1" stop-color="#6EAFAC"/>
</linearGradient>
<linearGradient id="paint8_linear_0_1722" x1="362.15" y1="507.269" x2="362.15" y2="288.387" gradientUnits="userSpaceOnUse">
<stop stop-color="#477D98"/>
<stop offset="0.3443" stop-color="#467A95"/>
<stop offset="0.586" stop-color="#43718C"/>
<stop offset="0.7956" stop-color="#3D627D"/>
<stop offset="0.9869" stop-color="#364C68"/>
<stop offset="1" stop-color="#354A66"/>
</linearGradient>
<linearGradient id="paint9_linear_0_1722" x1="195.015" y1="507.269" x2="195.015" y2="288.387" gradientUnits="userSpaceOnUse">
<stop stop-color="#0B6FC0"/>
<stop offset="0.3443" stop-color="#467A95"/>
<stop offset="0.586" stop-color="#43718C"/>
<stop offset="0.7956" stop-color="#3D627D"/>
<stop offset="0.9869" stop-color="#364C68"/>
<stop offset="1" stop-color="#354A66"/>
</linearGradient>
</defs>
</svg>
