<svg width="1200" height="267" viewBox="0 0 1200 267" fill="none" xmlns="http://www.w3.org/2000/svg">
<rect width="1200" height="267" rx="10" fill="url(#paint0_linear_62_919)"/>
<path d="M208.928 150C201.26 150 194.851 155.347 193.247 162.5H163.613L148.455 117.052C147.9 115.387 146.323 114.28 144.558 114.313C142.797 114.349 141.264 115.524 140.78 117.21L113.538 211.87L84.3204 37.3422C84.007 35.4722 82.4184 34.0782 80.5155 34.0027C78.6025 33.9332 76.919 35.1937 76.4585 37.0332L45.0741 162.5H0V170.5H48.2141C50.0593 170.5 51.6669 169.249 52.1129 167.467L79.5773 57.6712L108.536 230.658C108.845 232.502 110.396 233.887 112.271 233.993C112.348 233.998 112.426 234 112.502 234C114.284 234 115.866 232.825 116.363 231.102L144.925 131.854L156.901 167.76C157.447 169.396 158.983 170.5 160.715 170.5H193.506C195.46 177.144 201.623 182 208.929 182C217.805 182 225 174.836 225 166C225 157.163 217.804 150 208.928 150Z" fill="#18A3CF"/>
<path d="M991.072 150C998.74 150 1005.15 155.347 1006.75 162.5H1036.39L1051.54 117.052C1052.1 115.387 1053.68 114.28 1055.44 114.313C1057.2 114.349 1058.74 115.524 1059.22 117.21L1086.46 211.87L1115.68 37.3422C1115.99 35.4722 1117.58 34.0782 1119.48 34.0027C1121.4 33.9332 1123.08 35.1937 1123.54 37.0332L1154.93 162.5H1200V170.5H1151.79C1149.94 170.5 1148.33 169.249 1147.89 167.467L1120.42 57.6712L1091.46 230.658C1091.15 232.502 1089.6 233.887 1087.73 233.993C1087.65 233.998 1087.57 234 1087.5 234C1085.72 234 1084.13 232.825 1083.64 231.102L1055.07 131.854L1043.1 167.76C1042.55 169.396 1041.02 170.5 1039.29 170.5H1006.49C1004.54 177.144 998.377 182 991.071 182C982.195 182 975 174.836 975 166C975 157.163 982.196 150 991.072 150Z" fill="#086FBB"/>
<defs>
<linearGradient id="paint0_linear_62_919" x1="0" y1="133.5" x2="1200" y2="133.5" gradientUnits="userSpaceOnUse">
<stop stop-color="#24BEE0"/>
<stop offset="1" stop-color="#0B6FC0"/>
</linearGradient>
</defs>
</svg>
