<svg width="225" height="200" viewBox="0 0 225 200" fill="none" xmlns="http://www.w3.org/2000/svg">
<path d="M208.928 116C201.26 116 194.851 121.347 193.247 128.5H163.613L148.455 83.0516C147.9 81.3871 146.323 80.2802 144.558 80.3126C142.797 80.3486 141.264 81.5236 140.78 83.2101L113.538 177.87L84.3204 3.34223C84.007 1.47224 82.4184 0.0782373 80.5155 0.00273737C78.6025 -0.0667626 76.919 1.19374 76.4585 3.03323L45.0741 128.5H0V136.5H48.2141C50.0593 136.5 51.6669 135.249 52.1129 133.467L79.5773 23.6712L108.536 196.658C108.845 198.502 110.396 199.887 112.271 199.993C112.348 199.998 112.426 200 112.502 200C114.284 200 115.866 198.825 116.363 197.102L144.925 97.8536L156.901 133.76C157.447 135.396 158.983 136.5 160.715 136.5H193.506C195.46 143.144 201.623 148 208.929 148C217.805 148 225 140.836 225 132C225 123.163 217.804 116 208.928 116Z" fill="#18A3CF"/>
</svg>
