<svg width="225" height="200" viewBox="0 0 225 200" fill="none" xmlns="http://www.w3.org/2000/svg">
<path d="M16.0724 116C23.7404 116 30.1494 121.347 31.7535 128.5H61.3871L76.5449 83.0516C77.0998 81.3871 78.6773 80.2802 80.4417 80.3126C82.2035 80.3486 83.7358 81.5236 84.2205 83.2101L111.462 177.87L140.68 3.34223C140.993 1.47224 142.582 0.0782373 144.485 0.00273737C146.398 -0.0667626 148.081 1.19374 148.542 3.03323L179.926 128.5H225V136.5H176.786C174.941 136.5 173.333 135.249 172.887 133.467L145.423 23.6712L116.464 196.658C116.155 198.502 114.604 199.887 112.729 199.993C112.652 199.998 112.574 200 112.498 200C110.716 200 109.134 198.825 108.637 197.102L80.0745 97.8536L68.0989 133.76C67.5529 135.396 66.0166 136.5 64.2854 136.5H31.4938C29.5402 143.144 23.3773 148 16.0714 148C7.19495 148 0 140.836 0 132C0 123.163 7.19597 116 16.0724 116Z" fill="#086FBB"/>
</svg>
