<svg width="42" height="42" viewBox="0 0 42 42" fill="none" xmlns="http://www.w3.org/2000/svg">
<path d="M16.25 41H26.75C35.5 41 39 37.5 39 28.75V18.25C39 9.5 35.5 6 26.75 6H16.25C7.5 6 4 9.5 4 18.25V28.75C4 37.5 7.5 41 16.25 41Z" stroke="#24BEE0" stroke-width="2" stroke-linecap="round" stroke-linejoin="round"/>
<path d="M32.33 28.7053V15.2478C32.33 13.9003 31.245 12.9203 29.915 13.0253H29.845C27.5 13.2178 23.9475 14.4254 21.9525 15.6679L21.76 15.7904C21.445 15.9829 20.9025 15.9829 20.57 15.7904L20.29 15.6154C18.3125 14.3729 14.76 13.2003 12.415 13.0078C11.085 12.9028 10 13.9004 10 15.2304V28.7053C10 29.7728 10.875 30.7878 11.9425 30.9103L12.2575 30.9628C14.6725 31.2778 18.4175 32.5203 20.5525 33.6928L20.605 33.7103C20.9025 33.8853 21.3925 33.8853 21.6725 33.7103C23.8075 32.5203 27.57 31.2953 30.0025 30.9628L30.37 30.9103C31.455 30.7878 32.33 29.7903 32.33 28.7053Z" stroke="#24BEE0" stroke-width="2" stroke-linecap="round" stroke-linejoin="round"/>
<path d="M21 15.0004V31.7304" stroke="#24BEE0" stroke-width="2" stroke-linecap="round" stroke-linejoin="round"/>
</svg>
