<svg width="26" height="26" viewBox="0 0 26 26" fill="none" xmlns="http://www.w3.org/2000/svg">
<path d="M6.1684 16.4488C5.71594 15.4261 5.48239 14.3201 5.48275 13.2018C5.48275 8.89614 8.86453 5.40861 13.0365 5.40861C17.2086 5.40861 20.5903 8.8973 20.5903 13.2018C20.5907 14.3201 20.3571 15.4261 19.9047 16.4488M13.0365 1.34119V2.50331M24.6578 12.9624H23.4956M2.57745 12.9624H1.41533M21.2527 4.74504L20.4311 5.56666M5.64196 5.56782L4.82034 4.7462M15.9616 21.454C17.1353 21.074 17.6072 19.999 17.7396 18.9183C17.7792 18.5952 17.513 18.3267 17.1876 18.3267H8.94239C8.86293 18.3255 8.7841 18.3411 8.71113 18.3726C8.63815 18.4041 8.57269 18.4507 8.51908 18.5093C8.46547 18.568 8.42493 18.6374 8.40014 18.7129C8.37535 18.7884 8.36687 18.8683 8.37527 18.9473C8.50543 20.0258 8.83315 20.8137 10.0766 21.4529M15.9616 21.454L10.0766 21.4529M15.9616 21.454C15.821 23.7143 15.1679 24.6092 13.0447 24.5836C10.7739 24.6254 10.2509 23.5179 10.0766 21.4529" stroke="#0C74C2" stroke-width="2.31029" stroke-linecap="round" stroke-linejoin="round"/>
</svg>
