<svg width="19" height="16" viewBox="0 0 19 16" fill="none" xmlns="http://www.w3.org/2000/svg">
<path fill-rule="evenodd" clip-rule="evenodd" d="M6.4001 11.801C4.4001 11.701 3.2001 10.301 2.9001 9.20097C3.4001 9.30097 4.0001 9.30097 4.5001 9.20097C4.5001 9.20097 4.5001 9.20097 4.6001 9.20097C3.5001 9.00097 2.7001 8.40097 2.2001 7.50097C1.8001 6.90097 1.6001 6.20097 1.6001 5.50097C2.1001 5.80097 2.7001 5.90097 3.3001 6.00097C2.5001 5.40097 2.0001 4.70097 1.8001 3.70097C1.6001 2.70097 1.7001 1.80097 2.2001 1.00097C4.2001 3.40097 6.8001 4.70097 9.9001 4.90097C9.9001 4.80097 9.9001 4.60097 9.8001 4.50097C9.7001 3.60097 9.9001 2.80097 10.3001 2.00097C10.9001 1.10097 11.7001 0.500967 12.8001 0.300967C14.1001 0.100967 15.2001 0.500967 16.1001 1.30097C16.2001 1.40097 16.2001 1.40097 16.3001 1.40097C17.1001 1.20097 17.8001 1.00097 18.5001 0.600967C18.2001 1.50097 17.7001 2.10097 16.9001 2.60097C17.6001 2.50097 18.3001 2.30097 19.0001 2.00097C18.9001 2.20097 18.7001 2.40097 18.6001 2.60097C18.2001 3.10097 17.7001 3.50097 17.2001 3.90097L17.1001 4.00097C17.1001 4.60097 17.1001 5.10097 17.0001 5.70097C16.9001 6.90097 16.5001 8.00097 16.0001 9.00097C15.5001 10.101 14.8001 11.101 14.0001 12.001C12.6001 13.501 10.8001 14.401 8.8001 14.901C8.1001 15.101 7.4001 15.101 6.7001 15.101C4.5001 15.201 2.5001 14.601 0.7001 13.501C0.7001 13.501 0.700098 13.501 0.600098 13.401C1.9001 13.501 3.2001 13.401 4.4001 12.901C5.2001 12.601 5.8001 12.301 6.4001 11.801Z" fill="#2B4165"/>
</svg>
