<svg width="42" height="42" viewBox="0 0 42 42" fill="none" xmlns="http://www.w3.org/2000/svg">
<g clip-path="url(#clip0_62_840)">
<path d="M0.875 31.6215V40.3715M4.375 29.8715V42.1215M30.625 31.6215V40.3715M27.125 29.8715V42.1215M4.375 35.9965H27.125M23.625 35.9965L21.875 28.9965C21.875 28.9965 19.25 27.2465 15.75 27.2465C12.25 27.2465 9.625 28.9965 9.625 28.9965L7.875 35.9965M41.125 15.8715V24.6215M37.625 14.1215V26.3715M22.75 20.2465H37.625M34.125 20.2465L32.375 13.2465C32.375 13.2465 29.75 11.4965 26.25 11.4965C22.75 11.4965 20.125 13.2465 20.125 13.2465L19.6875 14.9965M15.4875 23.7465C15.4875 23.7465 12.6875 21.9965 12.6875 19.809C12.6875 18.9977 13.0098 18.2196 13.5835 17.646C14.1571 17.0723 14.9352 16.75 15.7465 16.75C16.5578 16.75 17.3359 17.0723 17.9095 17.646C18.4832 18.2196 18.8055 18.9977 18.8055 19.809C18.8055 21.9965 16.0125 23.7465 16.0125 23.7465H15.4875ZM25.9875 7.9965C25.9875 7.9965 23.1875 6.2465 23.1875 4.059C23.1875 3.2477 23.5098 2.46963 24.0835 1.89596C24.6571 1.32229 25.4352 1 26.2465 1C27.0578 1 27.8359 1.32229 28.4095 1.89596C28.9832 2.46963 29.3055 3.2477 29.3055 4.059C29.3055 6.2465 26.5125 7.9965 26.5125 7.9965H25.9875Z" stroke="#24BEE0" stroke-width="2"/>
</g>
<defs>
<clipPath id="clip0_62_840">
<rect width="42" height="42" fill="white"/>
</clipPath>
</defs>
</svg>
