<svg width="42" height="42" viewBox="0 0 42 42" fill="none" xmlns="http://www.w3.org/2000/svg">
<path fill-rule="evenodd" clip-rule="evenodd" d="M27.75 3.625C27.5179 3.625 27.2954 3.53281 27.1313 3.36872C26.9672 3.20462 26.875 2.98206 26.875 2.75V1H25.125V2.75C25.125 3.89275 25.8556 4.86575 26.875 5.22625V6.25H26C25.7679 6.25 25.5454 6.34219 25.3813 6.50628C25.2172 6.67038 25.125 6.89294 25.125 7.125V12.375C25.125 12.6071 25.2172 12.8296 25.3813 12.9937C25.5454 13.1578 25.7679 13.25 26 13.25H29.5C29.7321 13.25 29.9546 13.1578 30.1187 12.9937C30.2828 12.8296 30.375 12.6071 30.375 12.375V7.125C30.375 6.89294 30.2828 6.67038 30.1187 6.50628C29.9546 6.34219 29.7321 6.25 29.5 6.25H28.625V5.375H33V15.9327H17.3463C17.3108 15.9332 17.2756 15.9264 17.2428 15.9129C17.21 15.8994 17.1803 15.8793 17.1555 15.854L16.8352 15.5303L17.1581 15.2091C17.4647 14.9028 17.7079 14.5392 17.8739 14.1389C18.0398 13.7385 18.1253 13.3095 18.1254 12.8761C18.1254 12.4428 18.0401 12.0137 17.8743 11.6133C17.7085 11.2129 17.4654 10.8491 17.159 10.5428L15.584 8.96775C15.2778 8.66107 14.9142 8.41773 14.514 8.25162C14.1138 8.0855 13.6847 7.99988 13.2514 7.99964C12.818 7.99939 12.3889 8.08453 11.9884 8.2502C11.588 8.41586 11.2241 8.65879 10.9176 8.96512L10.3016 9.58113C9.70601 9.41124 9.07569 9.40453 8.47659 9.56169C7.8775 9.71885 7.33164 10.0341 6.89612 10.4745C6.24188 11.1354 5.87488 12.0278 5.87488 12.9578C5.87488 13.8877 6.24188 14.7801 6.89612 15.441L7.625 16.1751V25.5H5V27.25H7.66875C7.2342 27.6758 6.93631 28.2213 6.81307 28.8171C6.68982 29.4128 6.7468 30.0318 6.97674 30.595C7.20668 31.1583 7.59917 31.6402 8.10414 31.9795C8.60912 32.3188 9.2037 32.5 9.81206 32.5C10.4204 32.5 11.015 32.3188 11.52 31.9795C12.025 31.6402 12.4174 31.1583 12.6474 30.595C12.8773 30.0318 12.9343 29.4128 12.8111 28.8171C12.6878 28.2213 12.3899 27.6758 11.9554 27.25H29.5446C29.1101 27.6758 28.8122 28.2213 28.6889 28.8171C28.5657 29.4128 28.6227 30.0318 28.8526 30.595C29.0826 31.1583 29.475 31.6402 29.98 31.9795C30.485 32.3188 31.0796 32.5 31.6879 32.5C32.2963 32.5 32.8909 32.3188 33.3959 31.9795C33.9008 31.6402 34.2933 31.1583 34.5233 30.595C34.7532 30.0318 34.8102 29.4128 34.6869 28.8171C34.5637 28.2213 34.2658 27.6758 33.8313 27.25H36.5V25.5H33V22.875H33.0578C34.96 22.875 36.5 21.321 36.5 19.4039C36.5013 18.7903 36.34 18.1874 36.0326 17.6563C35.7252 17.1253 35.2827 16.6852 34.75 16.3807V5.375C34.75 4.91087 34.5656 4.46575 34.2374 4.13756C33.9093 3.80937 33.4641 3.625 33 3.625H27.75ZM11.8478 10.5095L15.6015 14.2895L15.9209 13.971C16.0648 13.8272 16.179 13.6564 16.2569 13.4684C16.3348 13.2804 16.3749 13.079 16.3749 12.8755C16.3749 12.672 16.3348 12.4705 16.2569 12.2826C16.179 12.0946 16.0648 11.9238 15.9209 11.78L14.3459 10.205C14.2022 10.061 14.0315 9.94665 13.8436 9.8686C13.6557 9.79056 13.4542 9.7503 13.2507 9.75014C13.0473 9.74998 12.8458 9.78991 12.6577 9.86766C12.4697 9.9454 12.2988 10.0594 12.1549 10.2032L11.8478 10.5095ZM13.9915 22.5845C14.1752 22.77 14.4264 22.875 14.688 22.875H31.25V25.5H9.375V17.9365L13.9915 22.5845ZM15.9148 17.0869C16.2919 17.4666 16.8073 17.6828 17.3463 17.6828H33.0578C33.9783 17.6828 34.75 18.4396 34.75 19.4039C34.75 20.3681 33.9791 21.125 33.0578 21.125H15.0082L8.13775 14.2081C7.80917 13.8751 7.62495 13.426 7.62495 12.9582C7.62495 12.4903 7.80917 12.0413 8.13775 11.7083C8.29674 11.5469 8.48622 11.4188 8.69517 11.3314C8.90412 11.2439 9.12837 11.1989 9.35488 11.1989C9.58138 11.1989 9.80563 11.2439 10.0146 11.3314C10.2235 11.4188 10.413 11.5469 10.572 11.7083L15.9148 17.0869ZM11.125 29.4375C11.125 29.7856 10.9867 30.1194 10.7406 30.3656C10.4944 30.6117 10.1606 30.75 9.8125 30.75C9.4644 30.75 9.13056 30.6117 8.88442 30.3656C8.63828 30.1194 8.5 29.7856 8.5 29.4375C8.5 29.0894 8.63828 28.7556 8.88442 28.5094C9.13056 28.2633 9.4644 28.125 9.8125 28.125C10.1606 28.125 10.4944 28.2633 10.7406 28.5094C10.9867 28.7556 11.125 29.0894 11.125 29.4375ZM31.6875 30.75C32.0356 30.75 32.3694 30.6117 32.6156 30.3656C32.8617 30.1194 33 29.7856 33 29.4375C33 29.0894 32.8617 28.7556 32.6156 28.5094C32.3694 28.2633 32.0356 28.125 31.6875 28.125C31.3394 28.125 31.0056 28.2633 30.7594 28.5094C30.5133 28.7556 30.375 29.0894 30.375 29.4375C30.375 29.7856 30.5133 30.1194 30.7594 30.3656C31.0056 30.6117 31.3394 30.75 31.6875 30.75ZM26.875 11.5V8H28.625V11.5H26.875Z" fill="#24BEE0"/>
</svg>
