<svg width="42" height="42" viewBox="0 0 42 42" fill="none" xmlns="http://www.w3.org/2000/svg">
<path d="M29.2421 15.7727H29.2561M29.2561 12.2657V7.88375M12.6276 38.5H7.75563C7.19038 38.5 6.62163 38.4195 6.10188 38.1972C4.41138 37.471 3.55213 36.5103 3.15313 35.91C3.04485 35.7437 2.99164 35.5476 3.00107 35.3494C3.01049 35.1512 3.08206 34.961 3.20563 34.8057C5.16563 32.2017 9.70863 30.6303 12.6276 30.6303M12.6364 38.5H17.5066C18.0736 38.5 18.6406 38.4195 19.1604 38.1972C20.8526 37.471 21.7101 36.5103 22.1109 35.91C22.2192 35.7437 22.2724 35.5476 22.2629 35.3494C22.2535 35.1512 22.182 34.961 22.0584 34.8057C20.0984 32.2017 15.5554 30.6303 12.6364 30.6303M37.9991 11.886C37.9991 16.5165 34.0791 20.272 29.2421 20.272C28.6728 20.272 28.1081 20.2195 27.5481 20.1145C27.1456 20.0393 26.9461 20.0025 26.8044 20.0235C26.6644 20.0445 26.4649 20.1495 26.0694 20.363C24.9365 20.9669 23.6327 21.1699 22.3699 20.9388C22.8494 20.3473 23.1749 19.6385 23.3201 18.879C23.4076 18.4153 23.1906 17.9638 22.8651 17.633C21.3453 16.1059 20.4899 14.0405 20.4851 11.886C20.4851 7.2555 24.4051 3.5 29.2421 3.5C34.0791 3.5 37.9991 7.2555 37.9991 11.886ZM17.4979 21.5057C17.496 22.7936 16.9829 24.0279 16.0713 24.9376C15.1597 25.8472 13.9242 26.3577 12.6364 26.3567C11.9984 26.3577 11.3665 26.2329 10.7768 25.9896C10.187 25.7463 9.65096 25.3893 9.19921 24.9388C8.74745 24.4884 8.38884 23.9533 8.14385 23.3643C7.89887 22.7752 7.7723 22.1437 7.77138 21.5057C7.77207 20.8676 7.89847 20.2359 8.14335 19.6467C8.38824 19.0574 8.74681 18.5222 9.19859 18.0715C9.65037 17.6209 10.1865 17.2637 10.7764 17.0203C11.3662 16.7769 11.9983 16.6521 12.6364 16.653C13.9245 16.6521 15.1603 17.1628 16.0719 18.0728C16.9836 18.9828 17.4965 20.2176 17.4979 21.5057Z" stroke="#24BEE0" stroke-width="2" stroke-linecap="round" stroke-linejoin="round"/>
</svg>
