<svg width="42" height="42" viewBox="0 0 42 42" fill="none" xmlns="http://www.w3.org/2000/svg">
<g clip-path="url(#clip0_62_844)">
<path d="M9.7345 26.715V24.965H12.7008C12.6226 25.2567 12.5613 25.5431 12.517 25.8242C12.4738 26.1042 12.4476 26.4018 12.4382 26.7167L9.7345 26.715ZM9.50175 35.5C7.39592 35.5 5.60158 34.7761 4.11875 33.3283C2.63592 31.8804 1.8945 30.1135 1.8945 28.0275V12.1445C1.0895 12.1445 0.405833 11.8692 -0.1565 11.3185C-0.718833 10.7667 -1 10.0883 -1 9.28325V6.8945C-1 6.0895 -0.718833 5.40583 -0.1565 4.8435C0.405833 4.28117 1.0895 4 1.8945 4H17.0723C17.8773 4 18.5667 4.28117 19.1407 4.8435C19.7136 5.40467 20 6.08833 20 6.8945V9.28325C20 10.0883 19.7136 10.7667 19.1407 11.3185C18.5667 11.8692 17.8773 12.1445 17.0723 12.1445V18.6842C16.7981 18.8744 16.5432 19.0763 16.3075 19.2898C16.0718 19.5033 15.8478 19.7354 15.6355 19.9862H9.73625V18.2362H15.3223V12.1445H3.6445V28.0293C3.6445 29.6439 4.21617 31.0013 5.3595 32.1015C6.50283 33.2017 7.88358 33.7512 9.50175 33.75C10.2648 33.75 10.9758 33.6164 11.635 33.3493C12.293 33.0821 12.881 32.7146 13.399 32.2468C13.5203 32.5384 13.6539 32.8062 13.7998 33.05C13.9456 33.2938 14.1107 33.5406 14.295 33.7903C13.6417 34.3246 12.9113 34.7428 12.104 35.045C11.2967 35.3483 10.4293 35.5 9.50175 35.5ZM1.8945 10.3945H17.0723C17.3873 10.3945 17.662 10.2878 17.8965 10.0743C18.1322 9.86075 18.25 9.59708 18.25 9.28325V6.8945C18.25 6.5795 18.1322 6.31 17.8965 6.086C17.6608 5.862 17.3861 5.75 17.0723 5.75H1.8945C1.5795 5.75 1.31058 5.862 1.08775 6.086C0.864917 6.31 0.752333 6.5795 0.75 6.8945V9.28325C0.75 9.59825 0.862 9.86192 1.086 10.0743C1.31117 10.2878 1.58067 10.3945 1.8945 10.3945ZM23.1973 32.539C24.5576 32.539 25.7167 32.0601 26.6745 31.1022C27.6312 30.1444 28.1095 28.9853 28.1095 27.625C28.1095 26.2647 27.6312 25.1062 26.6745 24.1495C25.7167 23.1905 24.5576 22.711 23.1973 22.711C21.8381 22.711 20.6796 23.1905 19.7218 24.1495C18.7639 25.1062 18.285 26.2647 18.285 27.625C18.285 28.9853 18.7633 30.1444 19.72 31.1022C20.6767 32.0601 21.8358 32.5384 23.1973 32.5372M32.1222 37.7557L27.2625 32.896C26.6663 33.3487 26.0235 33.694 25.334 33.932C24.6457 34.17 23.9334 34.289 23.1973 34.289C21.3469 34.289 19.7737 33.6409 18.4775 32.3448C17.1813 31.0486 16.5338 29.4753 16.535 27.625C16.5362 25.7747 17.1837 24.2014 18.4775 22.9053C19.7713 21.6091 21.3446 20.9616 23.1973 20.9627C25.0499 20.9639 26.6232 21.6114 27.917 22.9053C29.2108 24.1991 29.8583 25.7723 29.8595 27.625C29.8595 28.36 29.7411 29.0723 29.5042 29.7618C29.2662 30.4501 28.9209 31.0929 28.4682 31.6903L33.328 36.55L32.1222 37.7557Z" fill="#24BEE0"/>
</g>
<defs>
<clipPath id="clip0_62_844">
<rect width="42" height="42" fill="white"/>
</clipPath>
</defs>
</svg>
