<svg width="18" height="18" viewBox="0 0 18 18" fill="none" xmlns="http://www.w3.org/2000/svg">
<path d="M8.6501 15.1371C9.9332 15.1371 11.1875 14.7566 12.2544 14.0438C13.3212 13.3309 14.1527 12.3177 14.6438 11.1323C15.1348 9.94683 15.2633 8.64242 15.0129 7.38396C14.7626 6.12551 14.1447 4.96955 13.2375 4.06226C12.3302 3.15496 11.1742 2.53709 9.91575 2.28677C8.65729 2.03645 7.35287 2.16492 6.16744 2.65594C4.982 3.14697 3.96879 3.97849 3.25594 5.04535C2.54308 6.11221 2.1626 7.36651 2.1626 8.64961C2.1626 9.72221 2.4221 10.7335 2.88343 11.6245L2.1626 15.1371L5.67522 14.4163C6.56617 14.8776 7.57822 15.1371 8.6501 15.1371Z" stroke="#9197B3" stroke-linecap="round" stroke-linejoin="round"/>
</svg>
