<svg width="19" height="19" viewBox="0 0 19 19" fill="none" xmlns="http://www.w3.org/2000/svg">
<path d="M18.5 5.00078C18.4 3.80078 17.9 2.70078 17 1.80078C16 0.900781 14.9 0.500781 13.6 0.400781C11.4 0.300781 6.20002 0.200781 4.40002 0.500781C2.30002 0.800781 0.900025 2.10078 0.400025 4.10078C2.46763e-05 5.70078 2.61962e-05 13.0008 0.300026 14.6008C0.700026 16.7008 1.90002 18.1008 4.10002 18.7008C5.60002 19.1008 12.8 19.0008 14.4 18.8008C16.6 18.5008 17.9 17.2008 18.5 15.1008C18.7 13.4008 18.6 6.50078 18.5 5.00078ZM16.7 14.3008C16.4 15.9008 15.4 16.9008 13.7 17.1008C12.2 17.3008 5.50002 17.4008 4.10002 17.0008C2.80002 16.6008 2.00003 15.7008 1.80003 14.4008C1.60003 13.1008 1.50003 6.70078 1.80003 5.00078C2.00003 3.40078 3.10003 2.40078 4.80003 2.20078C6.50003 2.00078 12.4 2.00078 14 2.20078C15.6 2.40078 16.6 3.50078 16.8 5.20078C16.9 6.70078 17 12.7008 16.7 14.3008ZM9.30003 4.90078C6.70003 4.90078 4.50002 7.00078 4.50002 9.70078C4.50002 12.3008 6.60003 14.5008 9.30003 14.5008C11.9 14.5008 14.1 12.4008 14.1 9.70078C14 7.00078 11.9 4.90078 9.30003 4.90078ZM9.20002 12.7008C7.50002 12.7008 6.10002 11.3008 6.10002 9.60078C6.10002 7.90078 7.50002 6.50078 9.20002 6.50078C10.9 6.50078 12.3 7.90078 12.3 9.60078C12.3 11.4008 10.9 12.8008 9.20002 12.7008ZM15.4 4.70078C15.4 5.30078 14.9 5.80078 14.3 5.80078C13.7 5.80078 13.2 5.30078 13.2 4.70078C13.2 4.10078 13.7 3.60078 14.3 3.60078C14.9 3.50078 15.4 4.10078 15.4 4.70078Z" fill="#2B4165"/>
<path d="M18.5 5.00078C18.4 3.80078 17.9 2.70078 17 1.80078C16 0.900781 14.9 0.500781 13.6 0.400781C11.4 0.300781 6.20002 0.200781 4.40002 0.500781C2.30002 0.800781 0.900025 2.10078 0.400025 4.10078C2.46763e-05 5.70078 2.61962e-05 13.0008 0.300026 14.6008C0.700026 16.7008 1.90002 18.1008 4.10002 18.7008C5.60002 19.1008 12.8 19.0008 14.4 18.8008C16.6 18.5008 17.9 17.2008 18.5 15.1008C18.7 13.4008 18.6 6.50078 18.5 5.00078ZM16.7 14.3008C16.4 15.9008 15.4 16.9008 13.7 17.1008C12.2 17.3008 5.50002 17.4008 4.10002 17.0008C2.80002 16.6008 2.00003 15.7008 1.80003 14.4008C1.60003 13.1008 1.50003 6.70078 1.80003 5.00078C2.00003 3.40078 3.10003 2.40078 4.80003 2.20078C6.50003 2.00078 12.4 2.00078 14 2.20078C15.6 2.40078 16.6 3.50078 16.8 5.20078C16.9 6.70078 17 12.7008 16.7 14.3008ZM9.30003 4.90078C6.70003 4.90078 4.50002 7.00078 4.50002 9.70078C4.50002 12.3008 6.60003 14.5008 9.30003 14.5008C11.9 14.5008 14.1 12.4008 14.1 9.70078C14 7.00078 11.9 4.90078 9.30003 4.90078ZM9.20002 12.7008C7.50002 12.7008 6.10002 11.3008 6.10002 9.60078C6.10002 7.90078 7.50002 6.50078 9.20002 6.50078C10.9 6.50078 12.3 7.90078 12.3 9.60078C12.3 11.4008 10.9 12.8008 9.20002 12.7008ZM15.4 4.70078C15.4 5.30078 14.9 5.80078 14.3 5.80078C13.7 5.80078 13.2 5.30078 13.2 4.70078C13.2 4.10078 13.7 3.60078 14.3 3.60078C14.9 3.50078 15.4 4.10078 15.4 4.70078Z" fill="#2B4165"/>
</svg>
