<svg width="42" height="42" viewBox="0 0 42 42" fill="none" xmlns="http://www.w3.org/2000/svg">
<path fill-rule="evenodd" clip-rule="evenodd" d="M18.375 3.5C19.39 3.5 20.3875 3.6015 21.3482 3.7975C21.8031 3.88986 22.2026 4.15913 22.4589 4.54606C22.7152 4.933 22.8073 5.4059 22.715 5.86075C22.6226 6.3156 22.3533 6.71512 21.9664 6.97144C21.5795 7.22775 21.1066 7.31986 20.6517 7.2275C18.4476 6.77786 16.1596 6.99185 14.0771 7.84243C11.9945 8.693 10.2109 10.142 8.95182 12.0061C7.6927 13.8703 7.01458 16.0659 7.0032 18.3154C6.99181 20.5649 7.64768 22.7673 8.88786 24.6441C10.1281 26.5209 11.8969 27.9878 13.9707 28.8594C16.0445 29.731 18.3302 29.9682 20.5388 29.5408C22.7474 29.1135 24.7797 28.041 26.3787 26.4587C27.9778 24.8765 29.0718 22.8557 29.5225 20.6518C29.5682 20.4265 29.6578 20.2125 29.7863 20.022C29.9147 19.8314 30.0794 19.668 30.271 19.5411C30.4626 19.4141 30.6773 19.3262 30.9029 19.2823C31.1285 19.2383 31.3605 19.2393 31.5857 19.285C31.8109 19.3307 32.0249 19.4204 32.2155 19.5488C32.4061 19.6773 32.5695 19.842 32.6964 20.0336C32.8233 20.2252 32.9112 20.4399 32.9552 20.6654C32.9991 20.891 32.9982 21.123 32.9525 21.3483C32.5262 23.4353 31.6567 25.4065 30.4027 27.1285L30.058 27.5835L36.449 33.9745C36.7661 34.2887 36.9513 34.7122 36.9664 35.1585C36.9815 35.6047 36.8256 36.0398 36.5304 36.3748C36.2352 36.7097 35.8232 36.9192 35.3786 36.9604C34.934 37.0015 34.4906 36.8711 34.139 36.596L33.9745 36.449L27.5835 30.058C25.7205 31.5262 23.5334 32.5276 21.2047 32.9786C18.8761 33.4296 16.4733 33.3172 14.1969 32.6508C11.9204 31.9844 9.8364 30.7832 8.11862 29.1475C6.40084 27.5118 5.09912 25.4891 4.32207 23.248C3.54502 21.007 3.31517 18.6125 3.65169 16.2646C3.98822 13.9166 4.88137 11.6832 6.25662 9.75057C7.63187 7.81798 9.44934 6.24229 11.5574 5.15496C13.6655 4.06764 16.003 3.5002 18.375 3.5ZM33.25 1.75C33.5773 1.75 33.8982 1.84184 34.176 2.01507C34.4538 2.18831 34.6774 2.436 34.8215 2.73L34.9055 2.93475L35.133 3.59625C35.3731 4.30007 35.7599 4.94485 36.268 5.4879C36.776 6.03095 37.3937 6.45986 38.08 6.74625L38.4037 6.86875L39.0652 7.0945C39.3928 7.20626 39.6799 7.41265 39.8902 7.68757C40.1004 7.96249 40.2245 8.29359 40.2466 8.63901C40.2687 8.98443 40.1879 9.32864 40.0143 9.62812C39.8408 9.9276 39.5824 10.1689 39.2717 10.3215L39.0652 10.4055L38.4037 10.633C37.6999 10.8731 37.0551 11.26 36.5121 11.768C35.969 12.2761 35.5401 12.8937 35.2537 13.58L35.1312 13.9038L34.9055 14.5653C34.7935 14.8927 34.587 15.1797 34.3119 15.3898C34.0369 15.5999 33.7058 15.7237 33.3604 15.7457C33.015 15.7676 32.6708 15.6866 32.3714 15.5129C32.0721 15.3392 31.8309 15.0807 31.6785 14.77L31.5945 14.5653L31.367 13.9038C31.1269 13.1999 30.74 12.5551 30.2319 12.0121C29.7239 11.4691 29.1062 11.0401 28.42 10.7538L28.0962 10.6313L27.4347 10.4055C27.1071 10.2937 26.82 10.0874 26.6098 9.81243C26.3995 9.53751 26.2754 9.20641 26.2533 8.86099C26.2312 8.51558 26.312 8.17136 26.4856 7.87188C26.6591 7.5724 26.9175 7.3311 27.2282 7.1785L27.4347 7.0945L28.0962 6.867C28.8 6.6269 29.4448 6.24001 29.9879 5.73196C30.5309 5.22391 30.9598 4.60629 31.2462 3.92L31.3687 3.59625L31.5945 2.93475C31.7124 2.58928 31.9354 2.28932 32.2322 2.07688C32.5291 1.86444 32.8849 1.75015 33.25 1.75ZM33.25 7.343C32.836 7.86398 32.3639 8.33603 31.843 8.75C32.3656 9.16417 32.8346 9.63317 33.25 10.157C33.6641 9.63433 34.1331 9.16533 34.657 8.75C34.136 8.33603 33.6639 7.86398 33.25 7.343Z" fill="#24BEE0"/>
</svg>
