<svg width="45" height="45" viewBox="0 0 45 45" fill="none" xmlns="http://www.w3.org/2000/svg">
<g clip-path="url(#clip0_1_1638)">
<path d="M22.5 41.25C12.1444 41.25 3.75 32.8556 3.75 22.5C3.75 12.1444 12.1444 3.75 22.5 3.75C32.8556 3.75 41.25 12.1444 41.25 22.5C41.25 32.8556 32.8556 41.25 22.5 41.25ZM22.5 37.5C26.4782 37.5 30.2936 35.9196 33.1066 33.1066C35.9196 30.2936 37.5 26.4782 37.5 22.5C37.5 18.5217 35.9196 14.7064 33.1066 11.8934C30.2936 9.08035 26.4782 7.5 22.5 7.5C18.5217 7.5 14.7064 9.08035 11.8934 11.8934C9.08035 14.7064 7.5 18.5217 7.5 22.5C7.5 26.4782 9.08035 30.2936 11.8934 33.1066C14.7064 35.9196 18.5217 37.5 22.5 37.5ZM30.9375 14.0625L26.25 26.25L14.0625 30.9375L18.75 18.75L30.9375 14.0625ZM22.5 24.375C22.9973 24.375 23.4742 24.1775 23.8258 23.8258C24.1775 23.4742 24.375 22.9973 24.375 22.5C24.375 22.0027 24.1775 21.5258 23.8258 21.1742C23.4742 20.8225 22.9973 20.625 22.5 20.625C22.0027 20.625 21.5258 20.8225 21.1742 21.1742C20.8225 21.5258 20.625 22.0027 20.625 22.5C20.625 22.9973 20.8225 23.4742 21.1742 23.8258C21.5258 24.1775 22.0027 24.375 22.5 24.375Z" fill="#24BEE0"/>
</g>
<defs>
<clipPath id="clip0_1_1638">
<rect width="45" height="45" fill="white"/>
</clipPath>
</defs>
</svg>
