<svg width="16" height="16" viewBox="0 0 16 16" fill="none" xmlns="http://www.w3.org/2000/svg">
<path d="M8 1.75C6.76387 1.75 5.5555 2.11656 4.52769 2.80331C3.49988 3.49007 2.6988 4.46619 2.22576 5.60823C1.75271 6.75027 1.62894 8.00693 1.87009 9.21931C2.11125 10.4317 2.70651 11.5453 3.58059 12.4194C4.45466 13.2935 5.56831 13.8888 6.78069 14.1299C7.99307 14.3711 9.24974 14.2473 10.3918 13.7742C11.5338 13.3012 12.5099 12.5001 13.1967 11.4723C13.8834 10.4445 14.25 9.23613 14.25 8C14.2482 6.34296 13.5891 4.7543 12.4174 3.58259C11.2457 2.41088 9.65705 1.75182 8 1.75ZM8 13.75C6.86276 13.75 5.75106 13.4128 4.80547 12.781C3.85989 12.1491 3.1229 11.2511 2.6877 10.2004C2.25249 9.14975 2.13862 7.99362 2.36049 6.87823C2.58235 5.76284 3.12999 4.73829 3.93414 3.93414C4.73829 3.12998 5.76284 2.58235 6.87823 2.36048C7.99362 2.13862 9.14976 2.25249 10.2004 2.68769C11.2511 3.1229 12.1491 3.85989 12.781 4.80547C13.4128 5.75105 13.75 6.86276 13.75 8C13.7483 9.52449 13.142 10.9861 12.064 12.064C10.9861 13.142 9.52449 13.7483 8 13.75ZM10.2 9.65063C9.85361 10.1122 9.37077 10.4531 8.81987 10.6251C8.26898 10.797 7.67794 10.7913 7.13047 10.6088C6.58301 10.4262 6.10685 10.076 5.76944 9.60779C5.43203 9.13959 5.25047 8.57711 5.25047 8C5.25047 7.42289 5.43203 6.86041 5.76944 6.39221C6.10685 5.92401 6.58301 5.57382 7.13047 5.39124C7.67794 5.20867 8.26898 5.20296 8.81987 5.37491C9.37077 5.54687 9.85361 5.88778 10.2 6.34937C10.2197 6.37564 10.2341 6.40553 10.2423 6.43735C10.2505 6.46917 10.2523 6.50229 10.2477 6.53482C10.2431 6.56735 10.2321 6.59865 10.2154 6.62694C10.1987 6.65523 10.1766 6.67995 10.1503 6.69969C10.1241 6.71943 10.0942 6.7338 10.0623 6.74199C10.0305 6.75017 9.9974 6.75201 9.96487 6.7474C9.93234 6.74278 9.90104 6.73181 9.87275 6.7151C9.84446 6.69838 9.81974 6.67626 9.8 6.65C9.51666 6.27221 9.12164 5.99315 8.67088 5.85234C8.22013 5.71154 7.73649 5.71613 7.28849 5.86546C6.84049 6.0148 6.45083 6.3013 6.17471 6.6844C5.89859 7.0675 5.75 7.52776 5.75 8C5.75 8.47224 5.89859 8.9325 6.17471 9.3156C6.45083 9.6987 6.84049 9.9852 7.28849 10.1345C7.73649 10.2839 8.22013 10.2885 8.67088 10.1477C9.12164 10.0069 9.51666 9.72779 9.8 9.35C9.83987 9.29696 9.89917 9.26192 9.96487 9.2526C10.0306 9.24329 10.0973 9.26045 10.1503 9.30031C10.2034 9.34018 10.2384 9.39948 10.2477 9.46518C10.257 9.53087 10.2399 9.59758 10.2 9.65063Z" fill="#9197B3"/>
</svg>
