<svg width="26" height="26" viewBox="0 0 26 26" fill="none" xmlns="http://www.w3.org/2000/svg">
<path d="M13 8.9375C11.9226 8.9375 10.8892 9.36551 10.1274 10.1274C9.36551 10.8892 8.9375 11.9226 8.9375 13C8.9375 14.0774 9.36551 15.1108 10.1274 15.8726C10.8892 16.6345 11.9226 17.0625 13 17.0625C14.0774 17.0625 15.1108 16.6345 15.8726 15.8726C16.6345 15.1108 17.0625 14.0774 17.0625 13C17.0625 11.9226 16.6345 10.8892 15.8726 10.1274C15.1108 9.36551 14.0774 8.9375 13 8.9375Z" fill="#9197B3"/>
<path fill-rule="evenodd" clip-rule="evenodd" d="M13 1.35352C13.2154 1.35352 13.4221 1.43912 13.5745 1.59149C13.7269 1.74386 13.8125 1.95053 13.8125 2.16602V3.55485C16.0376 3.74623 18.1237 4.71714 19.7029 6.29636C21.2822 7.87559 22.2531 9.9617 22.4445 12.1868H23.8333C24.0488 12.1868 24.2554 12.2725 24.4078 12.4248C24.5602 12.5772 24.6458 12.7839 24.6458 12.9993C24.6458 13.2148 24.5602 13.4215 24.4078 13.5739C24.2554 13.7262 24.0488 13.8118 23.8333 13.8118H22.4445C22.2531 16.037 21.2822 18.1231 19.7029 19.7023C18.1237 21.2816 16.0376 22.2525 13.8125 22.4438V23.8327C13.8125 24.0482 13.7269 24.2548 13.5745 24.4072C13.4221 24.5596 13.2154 24.6452 13 24.6452C12.7845 24.6452 12.5778 24.5596 12.4254 24.4072C12.2731 24.2548 12.1875 24.0482 12.1875 23.8327V22.4438C9.96231 22.2525 7.8762 21.2816 6.29697 19.7023C4.71775 18.1231 3.74684 16.037 3.55546 13.8118H2.16663C1.95114 13.8118 1.74448 13.7262 1.5921 13.5739C1.43973 13.4215 1.35413 13.2148 1.35413 12.9993C1.35413 12.7839 1.43973 12.5772 1.5921 12.4248C1.74448 12.2725 1.95114 12.1868 2.16663 12.1868H3.55546C3.74684 9.9617 4.71775 7.87559 6.29697 6.29636C7.8762 4.71714 9.96231 3.74623 12.1875 3.55485V2.16602C12.1875 1.95053 12.2731 1.74386 12.4254 1.59149C12.5778 1.43912 12.7845 1.35352 13 1.35352ZM5.14579 12.9993C5.14579 14.0308 5.34895 15.0521 5.74365 16.005C6.13836 16.9579 6.7169 17.8238 7.44622 18.5531C8.17555 19.2824 9.04139 19.8609 9.9943 20.2557C10.9472 20.6504 11.9685 20.8535 13 20.8535C14.0314 20.8535 15.0527 20.6504 16.0056 20.2557C16.9585 19.8609 17.8244 19.2824 18.5537 18.5531C19.283 17.8238 19.8616 16.9579 20.2563 16.005C20.651 15.0521 20.8541 14.0308 20.8541 12.9993C20.8541 10.9163 20.0266 8.91856 18.5537 7.44561C17.0808 5.97267 15.083 5.14518 13 5.14518C10.9169 5.14518 8.91917 5.97267 7.44622 7.44561C5.97328 8.91856 5.14579 10.9163 5.14579 12.9993Z" fill="#9197B3"/>
</svg>
