<svg width="5" height="20" viewBox="0 0 5 20" fill="none" xmlns="http://www.w3.org/2000/svg">
<path fill-rule="evenodd" clip-rule="evenodd" d="M1.42831 13.2432C1.44065 13.5191 1.55896 13.7797 1.75858 13.9705C1.9582 14.1614 2.22376 14.268 2.49996 14.268C2.77616 14.268 3.04172 14.1614 3.24134 13.9705C3.44096 13.7797 3.55926 13.5191 3.57161 13.2432L4.08331 1.97849C4.09449 1.76363 4.06184 1.54874 3.98732 1.3469C3.9128 1.14507 3.79798 0.960509 3.64985 0.804467C3.50173 0.648426 3.32339 0.524165 3.1257 0.439251C2.92801 0.354337 2.71511 0.310547 2.49996 0.310547C2.28481 0.310547 2.07191 0.354337 1.87422 0.439251C1.67653 0.524165 1.49819 0.648426 1.35007 0.804467C1.20194 0.960509 1.08712 1.14507 1.0126 1.3469C0.938085 1.54874 0.905426 1.76363 0.916615 1.97849L1.42831 13.2432ZM2.49996 16.412C2.0732 16.412 1.66392 16.5816 1.36216 16.8833C1.0604 17.1851 0.890869 17.5944 0.890869 18.0211V18.0319C0.890869 18.4586 1.0604 18.8679 1.36216 19.1697C1.66392 19.4714 2.0732 19.6409 2.49996 19.6409H2.51069C2.93744 19.6409 3.34672 19.4714 3.64849 19.1697C3.95025 18.8679 4.11978 18.4586 4.11978 18.0319V18.0211C4.11978 17.5944 3.95025 17.1851 3.64849 16.8833C3.34672 16.5816 2.93744 16.412 2.51069 16.412H2.49996Z" fill="#0C74C2"/>
</svg>
