<svg width="42" height="42" viewBox="0 0 42 42" fill="none" xmlns="http://www.w3.org/2000/svg">
<path d="M16.625 3.49963C17.7358 3.49946 18.805 3.92178 19.6158 4.68095C20.4267 5.44011 20.9184 6.47926 20.9912 7.58763L21 7.87463V15.9334L30.5235 16.9921C32.1746 17.1756 33.7067 17.9404 34.8458 19.1497C35.9849 20.359 36.6567 21.934 36.7413 23.5931L36.75 23.9484V24.4996C36.75 28.1369 35.3344 31.6313 32.8029 34.2431C30.2715 36.8549 26.823 38.379 23.1875 38.4926L22.75 38.4996H21.5705C19.0548 38.4996 16.5856 37.8217 14.4226 36.5372C12.2596 35.2528 10.4826 33.4092 9.2785 31.2004L9.04925 30.7611L4.07575 20.8141C3.44575 19.5541 3.913 17.8689 5.383 17.2651C7.20825 16.5179 8.9425 16.3779 10.7292 17.2861C11.1178 17.4845 11.4992 17.726 11.8737 18.0106L12.25 18.3081V7.87463C12.25 6.7143 12.7109 5.60151 13.5314 4.78103C14.3519 3.96056 15.4647 3.49963 16.625 3.49963ZM16.625 6.99963C16.4202 6.99956 16.2219 7.07133 16.0645 7.20243C15.9072 7.33354 15.8009 7.51568 15.764 7.71713L15.75 7.87463V22.7496C15.7497 23.1119 15.637 23.4652 15.4274 23.7607C15.2178 24.0562 14.9216 24.2794 14.5798 24.3994C14.2379 24.5195 13.8673 24.5304 13.5189 24.4308C13.1706 24.3312 12.8617 24.126 12.635 23.8434L12.054 23.1311L11.5238 22.5116C10.5087 21.3619 9.772 20.7266 9.14375 20.4064C8.7722 20.2062 8.34898 20.1227 7.92925 20.1666L7.6825 20.2016L12.18 29.1966C13.0199 30.8757 14.2946 32.299 15.8714 33.318C17.4482 34.3371 19.2693 34.9148 21.1453 34.9909L21.5705 34.9996H22.75C25.4667 34.9997 28.0776 33.9469 30.0343 32.0623C31.991 30.1777 33.1411 27.6081 33.243 24.8934L33.25 24.4996V23.9484C33.2501 23.1351 32.967 22.3472 32.4493 21.72C31.9317 21.0928 31.2118 20.6655 30.4132 20.5114L30.1368 20.4694L20.6133 19.4124C19.8047 19.3226 19.0526 18.954 18.4864 18.3699C17.9202 17.7857 17.5751 17.0226 17.5105 16.2116L17.5 15.9334V7.87463C17.5 7.64256 17.4078 7.42 17.2437 7.25591C17.0796 7.09181 16.8571 6.99963 16.625 6.99963ZM7 10.4996C7.46413 10.4996 7.90925 10.684 8.23744 11.0122C8.56563 11.3404 8.75 11.7855 8.75 12.2496C8.75 12.7138 8.56563 13.1589 8.23744 13.4871C7.90925 13.8153 7.46413 13.9996 7 13.9996H5.25C4.78587 13.9996 4.34075 13.8153 4.01256 13.4871C3.68437 13.1589 3.5 12.7138 3.5 12.2496C3.5 11.7855 3.68437 11.3404 4.01256 11.0122C4.34075 10.684 4.78587 10.4996 5.25 10.4996H7ZM28 8.74963C28.446 8.75012 28.8751 8.92091 29.1994 9.22711C29.5237 9.53331 29.7189 9.95179 29.7451 10.3971C29.7712 10.8423 29.6263 11.2808 29.34 11.6228C29.0538 11.9649 28.6477 12.1847 28.2048 12.2374L28 12.2496H26.25C25.804 12.2491 25.3749 12.0783 25.0506 11.7721C24.7263 11.4659 24.5311 11.0475 24.5049 10.6022C24.4788 10.1569 24.6237 9.71846 24.91 9.37642C25.1962 9.03438 25.6023 8.81456 26.0452 8.76188L26.25 8.74963H28ZM8.23725 2.26238L9.98725 4.01238C10.306 4.34243 10.4824 4.78448 10.4784 5.24333C10.4744 5.70217 10.2904 6.14109 9.96593 6.46556C9.64147 6.79002 9.20255 6.97407 8.7437 6.97806C8.28486 6.98204 7.8428 6.80565 7.51275 6.48688L5.76275 4.73688C5.44397 4.40682 5.26758 3.96477 5.27157 3.50592C5.27556 3.04708 5.4596 2.60816 5.78407 2.28369C6.10853 1.95923 6.54745 1.77518 7.0063 1.7712C7.46514 1.76721 7.9072 1.9436 8.23725 2.26238ZM27.4872 2.26238C27.8153 2.59055 27.9996 3.03559 27.9996 3.49963C27.9996 3.96366 27.8153 4.4087 27.4872 4.73688L25.7372 6.48688C25.5758 6.65402 25.3827 6.78734 25.1692 6.87905C24.9557 6.97077 24.7261 7.01905 24.4937 7.02106C24.2613 7.02308 24.0309 6.97881 23.8158 6.89081C23.6008 6.80282 23.4054 6.67288 23.2411 6.50857C23.0767 6.34426 22.9468 6.14886 22.8588 5.9338C22.7708 5.71873 22.7265 5.48829 22.7286 5.25592C22.7306 5.02356 22.7789 4.79393 22.8706 4.58042C22.9623 4.36691 23.0956 4.17381 23.2628 4.01238L25.0128 2.26238C25.3409 1.9343 25.786 1.75 26.25 1.75C26.714 1.75 27.1591 1.9343 27.4872 2.26238Z" fill="#24BEE0"/>
</svg>
