<svg width="42" height="42" viewBox="0 0 42 42" fill="none" xmlns="http://www.w3.org/2000/svg">
<path d="M22.7501 5.25C29.5401 5.25 35.0001 10.745 35.0001 17.5C35.0001 22.4 32.1476 26.5825 28.0001 28.5425V36.75H15.7501V31.5H14.0001C12.0576 31.5 10.5001 29.9425 10.5001 28V22.75H7.87505C7.14005 22.75 6.72005 21.875 7.14005 21.3325L10.5001 16.905C10.6542 13.7608 12.0125 10.7964 14.2931 8.62653C16.5738 6.45663 19.602 5.24757 22.7501 5.25ZM22.7501 1.75C14.7351 1.75 8.06755 7.7525 7.10505 15.5925L4.37505 19.25C3.36005 20.51 3.18505 22.26 3.92005 23.7825C4.55005 25.0425 5.67005 25.9 7.00005 26.1625V28C7.00005 31.255 9.24005 34.0025 12.2501 34.7725V40.25H31.5001V30.5725C35.8751 27.7025 38.5001 22.855 38.5001 17.5C38.5001 8.82 31.4301 1.75 22.7501 1.75ZM21.8226 22.75L15.7501 16.625L18.2001 14.1575L21.8226 17.7975L29.0501 10.5L31.5001 12.9675L21.8226 22.75Z" fill="#24BEE0"/>
</svg>
