<svg width="42" height="42" viewBox="0 0 42 42" fill="none" xmlns="http://www.w3.org/2000/svg">
<path d="M5.90625 10.5C5.90625 10.326 5.97539 10.159 6.09846 10.036C6.22153 9.91289 6.38845 9.84375 6.5625 9.84375H35.4375C35.6115 9.84375 35.7785 9.91289 35.9015 10.036C36.0246 10.159 36.0938 10.326 36.0938 10.5C36.0938 10.674 36.0246 10.841 35.9015 10.964C35.7785 11.0871 35.6115 11.1562 35.4375 11.1562H6.5625C6.38845 11.1562 6.22153 11.0871 6.09846 10.964C5.97539 10.841 5.90625 10.674 5.90625 10.5ZM6.5625 21.6562H17.0625C17.2365 21.6562 17.4035 21.5871 17.5265 21.464C17.6496 21.341 17.7188 21.174 17.7188 21C17.7188 20.826 17.6496 20.659 17.5265 20.536C17.4035 20.4129 17.2365 20.3438 17.0625 20.3438H6.5625C6.38845 20.3438 6.22153 20.4129 6.09846 20.536C5.97539 20.659 5.90625 20.826 5.90625 21C5.90625 21.174 5.97539 21.341 6.09846 21.464C6.22153 21.5871 6.38845 21.6562 6.5625 21.6562ZM19.6875 30.8438H6.5625C6.38845 30.8438 6.22153 30.9129 6.09846 31.036C5.97539 31.159 5.90625 31.326 5.90625 31.5C5.90625 31.674 5.97539 31.841 6.09846 31.964C6.22153 32.0871 6.38845 32.1562 6.5625 32.1562H19.6875C19.8615 32.1562 20.0285 32.0871 20.1515 31.964C20.2746 31.841 20.3438 31.674 20.3438 31.5C20.3438 31.326 20.2746 31.159 20.1515 31.036C20.0285 30.9129 19.8615 30.8438 19.6875 30.8438ZM40.0312 23.625C40.0312 26.0055 38.6269 28.3828 35.8575 30.6912C34.6005 31.7325 33.2385 32.6403 31.7937 33.3998C31.7025 33.4455 31.6019 33.4692 31.5 33.4692C31.3981 33.4692 31.2975 33.4455 31.2063 33.3998C29.7615 32.6403 28.3995 31.7325 27.1425 30.6912C24.3731 28.3828 22.9688 26.0055 22.9688 23.625C22.9692 22.6208 23.2987 21.6444 23.9067 20.8453C24.5148 20.0461 25.368 19.4683 26.3357 19.2001C27.3035 18.9319 28.3324 18.9882 29.2651 19.3604C30.1977 19.7326 30.9828 20.4001 31.5 21.2609C32.0172 20.4001 32.8023 19.7326 33.7349 19.3604C34.6676 18.9882 35.6965 18.9319 36.6643 19.2001C37.632 19.4683 38.4852 20.0461 39.0933 20.8453C39.7013 21.6444 40.0308 22.6208 40.0312 23.625ZM38.7188 23.625C38.7188 22.7548 38.373 21.9202 37.7577 21.3048C37.1423 20.6895 36.3077 20.3438 35.4375 20.3438C34.5673 20.3438 33.7327 20.6895 33.1173 21.3048C32.502 21.9202 32.1562 22.7548 32.1562 23.625C32.1562 23.799 32.0871 23.966 31.964 24.089C31.841 24.2121 31.674 24.2812 31.5 24.2812C31.326 24.2812 31.159 24.2121 31.036 24.089C30.9129 23.966 30.8438 23.799 30.8438 23.625C30.8438 22.7548 30.498 21.9202 29.8827 21.3048C29.2673 20.6895 28.4327 20.3438 27.5625 20.3438C26.6923 20.3438 25.8577 20.6895 25.2423 21.3048C24.627 21.9202 24.2812 22.7548 24.2812 23.625C24.2812 27.8578 30.112 31.308 31.5 32.0693C32.888 31.308 38.7188 27.8578 38.7188 23.625Z" fill="#24BEE0"/>
</svg>
