<svg width="51" height="55" viewBox="0 0 51 55" fill="none" xmlns="http://www.w3.org/2000/svg">
<g filter="url(#filter0_ddddd_27_125)">
<rect x="3.44434" y="2.5" width="28.4721" height="28.4721" rx="4.9578" stroke="#0C74C2"/>
<path d="M17.68 10.6996C19.633 10.6996 19.8993 10.6996 20.6983 10.6996C21.4084 10.6996 21.7635 10.8772 22.0298 10.9659C22.3849 11.1435 22.6512 11.2322 22.9176 11.4986C23.1839 11.7649 23.3614 12.0312 23.4502 12.3863C23.5389 12.6526 23.6277 13.0077 23.7165 13.7178C23.7165 14.5168 23.7165 14.6943 23.7165 16.7361C23.7165 18.7778 23.7165 18.9554 23.7165 19.7543C23.7165 20.4645 23.5389 20.8196 23.4502 21.0859C23.2726 21.441 23.1839 21.7073 22.9176 21.9736C22.6512 22.2399 22.3849 22.4174 22.0298 22.5062C21.7635 22.595 21.4084 22.6838 20.6983 22.7725C19.8993 22.7725 19.7218 22.7725 17.68 22.7725C15.6383 22.7725 15.4608 22.7725 14.6618 22.7725C13.9516 22.7725 13.5966 22.595 13.3302 22.5062C12.9752 22.3287 12.7088 22.2399 12.4425 21.9736C12.1762 21.7073 11.9987 21.441 11.9099 21.0859C11.8211 20.8196 11.7324 20.4645 11.6436 19.7543C11.6436 18.9554 11.6436 18.7778 11.6436 16.7361C11.6436 14.6943 11.6436 14.5168 11.6436 13.7178C11.6436 13.0077 11.8211 12.6526 11.9099 12.3863C12.0874 12.0312 12.1762 11.7649 12.4425 11.4986C12.7088 11.2322 12.9752 11.0547 13.3302 10.9659C13.5966 10.8772 13.9516 10.7884 14.6618 10.6996C15.4608 10.6996 15.7271 10.6996 17.68 10.6996ZM17.68 9.36804C15.6383 9.36804 15.4608 9.36804 14.6618 9.36804C13.8629 9.36804 13.3302 9.54559 12.8864 9.72313C12.4425 9.90067 11.9987 10.167 11.5548 10.6108C11.111 11.0547 10.9334 11.4098 10.6671 11.9424C10.4896 12.3863 10.4008 12.9189 10.312 13.7178C10.312 14.5168 10.312 14.7831 10.312 16.7361C10.312 18.7778 10.312 18.9554 10.312 19.7543C10.312 20.5532 10.4896 21.0859 10.6671 21.5297C10.8446 21.9736 11.111 22.4174 11.5548 22.8613C11.9987 23.3052 12.3538 23.4827 12.8864 23.749C13.3302 23.9266 13.8629 24.0153 14.6618 24.1041C15.4608 24.1041 15.7271 24.1041 17.68 24.1041C19.633 24.1041 19.8993 24.1041 20.6983 24.1041C21.4972 24.1041 22.0298 23.9266 22.4737 23.749C22.9176 23.5715 23.3614 23.3052 23.8053 22.8613C24.2491 22.4174 24.4267 22.0624 24.693 21.5297C24.8705 21.0859 24.9593 20.5532 25.0481 19.7543C25.0481 18.9554 25.0481 18.689 25.0481 16.7361C25.0481 14.7831 25.0481 14.5168 25.0481 13.7178C25.0481 12.9189 24.8705 12.3863 24.693 11.9424C24.5154 11.4986 24.2491 11.0547 23.8053 10.6108C23.3614 10.167 23.0063 9.98944 22.4737 9.72313C22.0298 9.54559 21.4972 9.45681 20.6983 9.36804C19.8993 9.36804 19.7218 9.36804 17.68 9.36804Z" fill="#0C74C2"/>
<path d="M17.68 12.9189C15.5495 12.9189 13.8629 14.6056 13.8629 16.7361C13.8629 18.8666 15.5495 20.5532 17.68 20.5532C19.8106 20.5532 21.4972 18.8666 21.4972 16.7361C21.4972 14.6056 19.8106 12.9189 17.68 12.9189ZM17.68 19.2217C16.3485 19.2217 15.1944 18.1564 15.1944 16.7361C15.1944 15.4045 16.2597 14.2505 17.68 14.2505C19.0116 14.2505 20.1656 15.3157 20.1656 16.7361C20.1656 18.0676 19.0116 19.2217 17.68 19.2217Z" fill="#0C74C2"/>
<path d="M21.586 13.7178C22.0763 13.7178 22.4737 13.3204 22.4737 12.8301C22.4737 12.3399 22.0763 11.9424 21.586 11.9424C21.0957 11.9424 20.6983 12.3399 20.6983 12.8301C20.6983 13.3204 21.0957 13.7178 21.586 13.7178Z" fill="#0C74C2"/>
</g>
<defs>
<filter id="filter0_ddddd_27_125" x="0.97953" y="0.38995" width="49.7206" height="53.7047" filterUnits="userSpaceOnUse" color-interpolation-filters="sRGB">
<feFlood flood-opacity="0" result="BackgroundImageFix"/>
<feColorMatrix in="SourceAlpha" type="matrix" values="0 0 0 0 0 0 0 0 0 0 0 0 0 0 0 0 0 0 127 0" result="hardAlpha"/>
<feOffset/>
<feColorMatrix type="matrix" values="0 0 0 0 0 0 0 0 0 0 0 0 0 0 0 0 0 0 0.1 0"/>
<feBlend mode="normal" in2="BackgroundImageFix" result="effect1_dropShadow_27_125"/>
<feColorMatrix in="SourceAlpha" type="matrix" values="0 0 0 0 0 0 0 0 0 0 0 0 0 0 0 0 0 0 127 0" result="hardAlpha"/>
<feOffset dx="0.682225" dy="0.955114"/>
<feGaussianBlur stdDeviation="1.28258"/>
<feColorMatrix type="matrix" values="0 0 0 0 0 0 0 0 0 0 0 0 0 0 0 0 0 0 0.1 0"/>
<feBlend mode="normal" in2="effect1_dropShadow_27_125" result="effect2_dropShadow_27_125"/>
<feColorMatrix in="SourceAlpha" type="matrix" values="0 0 0 0 0 0 0 0 0 0 0 0 0 0 0 0 0 0 127 0" result="hardAlpha"/>
<feOffset dx="2.70161" dy="3.79317"/>
<feGaussianBlur stdDeviation="2.33321"/>
<feColorMatrix type="matrix" values="0 0 0 0 0 0 0 0 0 0 0 0 0 0 0 0 0 0 0.09 0"/>
<feBlend mode="normal" in2="effect2_dropShadow_27_125" result="effect3_dropShadow_27_125"/>
<feColorMatrix in="SourceAlpha" type="matrix" values="0 0 0 0 0 0 0 0 0 0 0 0 0 0 0 0 0 0 127 0" result="hardAlpha"/>
<feOffset dx="6.11273" dy="8.54145"/>
<feGaussianBlur stdDeviation="3.15188"/>
<feColorMatrix type="matrix" values="0 0 0 0 0 0 0 0 0 0 0 0 0 0 0 0 0 0 0.05 0"/>
<feBlend mode="normal" in2="effect3_dropShadow_27_125" result="effect4_dropShadow_27_125"/>
<feColorMatrix in="SourceAlpha" type="matrix" values="0 0 0 0 0 0 0 0 0 0 0 0 0 0 0 0 0 0 127 0" result="hardAlpha"/>
<feOffset dx="10.8337" dy="15.1727"/>
<feGaussianBlur stdDeviation="3.72495"/>
<feColorMatrix type="matrix" values="0 0 0 0 0 0 0 0 0 0 0 0 0 0 0 0 0 0 0.01 0"/>
<feBlend mode="normal" in2="effect4_dropShadow_27_125" result="effect5_dropShadow_27_125"/>
<feBlend mode="normal" in="SourceGraphic" in2="effect5_dropShadow_27_125" result="shape"/>
</filter>
</defs>
</svg>
