<svg width="18" height="18" viewBox="0 0 18 18" fill="none" xmlns="http://www.w3.org/2000/svg">
<path d="M14.427 5.77148H10.3788L11.1888 3.34268C11.3346 2.9041 11.261 2.41791 10.9905 2.0428C10.72 1.6677 10.2814 1.44336 9.81899 1.44336H8.65617C8.44193 1.44336 8.23923 1.53858 8.10145 1.70305L4.71108 5.77148H2.88534C2.08968 5.77148 1.44263 6.41854 1.44263 7.21419V13.7064C1.44263 14.502 2.08968 15.1491 2.88534 15.1491H12.4844C12.7779 15.1481 13.0642 15.0581 13.3055 14.8909C13.5467 14.7237 13.7315 14.4873 13.8355 14.2128L15.8243 8.9101C15.8545 8.8291 15.8699 8.74334 15.8697 8.6569V7.21419C15.8697 6.41854 15.2227 5.77148 14.427 5.77148ZM2.88534 7.21419H4.32804V13.7064H2.88534V7.21419ZM14.427 8.52634L12.4844 13.7064H5.77075V6.75397L8.99376 2.88607H9.82043L8.69368 6.26417C8.6571 6.3726 8.6469 6.48819 8.66392 6.60135C8.68094 6.71451 8.72469 6.82199 8.79154 6.91486C8.85839 7.00774 8.94642 7.08334 9.04833 7.13539C9.15024 7.18745 9.26309 7.21446 9.37752 7.21419H14.427V8.52634Z" fill="#9197B3"/>
</svg>
