<svg width="42" height="42" viewBox="0 0 42 42" fill="none" xmlns="http://www.w3.org/2000/svg">
<path d="M14 39.0598C13.51 39.0598 13.0025 38.9373 12.5475 38.6923C11.55 38.1673 10.9375 37.1173 10.9375 35.9973V33.5125C5.6525 32.97 2.1875 29.0848 2.1875 23.5198V13.0199C2.1875 6.9999 6.23 2.9574 12.25 2.9574H29.75C35.77 2.9574 39.8125 6.9999 39.8125 13.0199V23.5198C39.8125 29.5398 35.77 33.5823 29.75 33.5823H23.1525L15.6974 38.5525C15.1899 38.885 14.595 39.0598 14 39.0598ZM12.25 5.56488C7.735 5.56488 4.8125 8.48738 4.8125 13.0024V23.5025C4.8125 28.0175 7.735 30.94 12.25 30.94C12.9675 30.94 13.5625 31.535 13.5625 32.2525V35.98C13.5625 36.2075 13.7025 36.3125 13.79 36.365C13.8775 36.4175 14.0525 36.47 14.245 36.3475L22.0325 31.1675C22.2425 31.0275 22.505 30.94 22.7675 30.94H29.7675C34.2825 30.94 37.205 28.0175 37.205 23.5025V13.0024C37.205 8.48738 34.2825 5.56488 29.7675 5.56488H12.25Z" fill="#24BEE0"/>
<path d="M20.9997 21.1923C20.2822 21.1923 19.6872 20.5973 19.6872 19.8798V19.5123C19.6872 17.4823 21.1747 16.4848 21.7347 16.0998C22.3822 15.6623 22.5922 15.3648 22.5922 14.9098C22.5922 14.0348 21.8747 13.3173 20.9997 13.3173C20.1247 13.3173 19.4072 14.0348 19.4072 14.9098C19.4072 15.6273 18.8122 16.2223 18.0947 16.2223C17.3772 16.2223 16.7822 15.6273 16.7822 14.9098C16.7822 12.5823 18.6722 10.6923 20.9997 10.6923C23.3272 10.6923 25.2172 12.5823 25.2172 14.9098C25.2172 16.9048 23.7472 17.9023 23.2047 18.2698C22.5222 18.7248 22.3122 19.0223 22.3122 19.5123V19.8798C22.3122 20.6148 21.7172 21.1923 20.9997 21.1923Z" fill="#24BEE0"/>
<path d="M21 25.5502C20.265 25.5502 19.6875 24.9552 19.6875 24.2377C19.6875 23.5202 20.2825 22.9252 21 22.9252C21.7175 22.9252 22.3125 23.5202 22.3125 24.2377C22.3125 24.9552 21.735 25.5502 21 25.5502Z" fill="#24BEE0"/>
</svg>
