<svg width="40" height="40" viewBox="0 0 40 40" fill="none" xmlns="http://www.w3.org/2000/svg">
<path d="M19.9997 24.6502C19.7981 24.6479 19.5991 24.6024 19.4164 24.5169C19.1664 24.3836 13.3331 21.1836 12.0831 17.0002C11.7005 15.9364 11.5662 14.7992 11.6904 13.6756C11.8146 12.5519 12.1941 11.4715 12.7997 10.5169C13.2504 9.92405 13.8368 9.44806 14.5096 9.12903C15.1825 8.80998 15.9222 8.65721 16.6664 8.68358C17.2912 8.6664 17.9122 8.78403 18.4876 9.0285C19.0627 9.27296 19.5786 9.63851 19.9997 10.1002C20.4209 9.63851 20.9367 9.27296 21.5119 9.0285C22.0872 8.78403 22.7082 8.6664 23.3331 8.68358C24.0717 8.6626 24.8047 8.81795 25.4714 9.13678C26.1381 9.45561 26.7191 9.92873 27.1664 10.5169C27.7721 11.4715 28.1516 12.5519 28.2757 13.6756C28.3999 14.7992 28.2656 15.9364 27.8831 17.0002C26.6331 21.2669 20.7997 24.3836 20.5497 24.5169C20.3772 24.5979 20.1902 24.6432 19.9997 24.6502ZM16.6664 11.1836C16.3155 11.1578 15.9637 11.2205 15.6433 11.3661C15.323 11.5118 15.0444 11.7355 14.8331 12.0169C14.4654 12.6625 14.2462 13.3819 14.1914 14.1228C14.1366 14.8638 14.2476 15.6076 14.5164 16.3002C15.2164 18.7002 18.3331 20.9669 20.0331 21.9669C21.6997 20.9502 24.8497 18.6336 25.5497 16.3002C25.8186 15.6076 25.9296 14.8638 25.8747 14.1228C25.8199 13.3819 25.6007 12.6625 25.2331 12.0169C24.9537 11.6483 24.5662 11.3763 24.1247 11.239C23.6831 11.1016 23.2097 11.1058 22.7706 11.2509C22.3316 11.3961 21.9489 11.6749 21.6761 12.0483C21.4034 12.4218 21.2544 12.8712 21.2497 13.3336C21.2497 13.6651 21.1181 13.983 20.8836 14.2175C20.6492 14.4519 20.3312 14.5836 19.9997 14.5836C19.6682 14.5836 19.3502 14.4519 19.1159 14.2175C18.8814 13.983 18.7497 13.6651 18.7497 13.3336C18.7611 13.0538 18.7154 12.7747 18.6156 12.5132C18.5157 12.2516 18.3637 12.0131 18.1689 11.812C17.9741 11.6109 17.7404 11.4516 17.4822 11.3435C17.2239 11.2355 16.9464 11.1811 16.6664 11.1836Z" fill="#24BEE0"/>
<path d="M31.2664 29.5833H8.73307C6.96496 29.5833 5.26927 28.881 4.01902 27.6306C2.76879 26.3805 2.06641 24.6848 2.06641 22.9166V10.3999C2.06641 8.63183 2.76879 6.93614 4.01902 5.68589C5.26927 4.43566 6.96496 3.73328 8.73307 3.73328H31.2664C33.0346 3.73328 34.7303 4.43566 35.9804 5.68589C37.2308 6.93614 37.9331 8.63183 37.9331 10.3999V22.9333C37.9286 24.6985 37.2243 26.39 35.9746 27.6366C34.7248 28.8831 33.0316 29.5833 31.2664 29.5833ZM8.73307 6.24994C7.63377 6.25433 6.58076 6.69298 5.80342 7.47029C5.02611 8.24763 4.58746 9.30064 4.58307 10.3999V22.9333C4.58746 24.0326 5.02611 25.0856 5.80342 25.863C6.58076 26.6403 7.63377 27.079 8.73307 27.0833H31.2664C32.3658 27.079 33.4188 26.6403 34.1961 25.863C34.9734 25.0856 35.4121 24.0326 35.4164 22.9333V10.3999C35.4121 9.30064 34.9734 8.24763 34.1961 7.47029C33.4188 6.69298 32.3658 6.25433 31.2664 6.24994H8.73307Z" fill="#24BEE0"/>
<path d="M20 36.25C19.6698 36.2457 19.3543 36.1127 19.1208 35.8792C18.8873 35.6457 18.7543 35.3302 18.75 35V28.3334C18.75 28.0019 18.8817 27.6839 19.1162 27.4495C19.3505 27.215 19.6685 27.0834 20 27.0834C20.3315 27.0834 20.6495 27.215 20.8838 27.4495C21.1183 27.6839 21.25 28.0019 21.25 28.3334V35C21.2457 35.3302 21.1127 35.6457 20.8792 35.8792C20.6457 36.1127 20.3302 36.2457 20 36.25Z" fill="#24BEE0"/>
<path d="M30 36.25H10C9.66848 36.25 9.35053 36.1183 9.11612 35.8838C8.8817 35.6495 8.75 35.3315 8.75 35C8.75 34.6685 8.8817 34.3505 9.11612 34.1162C9.35053 33.8817 9.66848 33.75 10 33.75H30C30.3315 33.75 30.6495 33.8817 30.8838 34.1162C31.1183 34.3505 31.25 34.6685 31.25 35C31.25 35.3315 31.1183 35.6495 30.8838 35.8838C30.6495 36.1183 30.3315 36.25 30 36.25Z" fill="#24BEE0"/>
</svg>
