<svg width="48" height="48" viewBox="0 0 48 48" fill="none" xmlns="http://www.w3.org/2000/svg">
<path opacity="0.16" d="M12 18C12 14.8174 13.2643 11.7652 15.5147 9.51472C17.7652 7.26428 20.8174 6 24 6C27.1826 6 30.2348 7.26428 32.4853 9.51472C34.7357 11.7652 36 14.8174 36 18V30C36 33.1826 34.7357 36.2348 32.4853 38.4853C30.2348 40.7357 27.1826 42 24 42C20.8174 42 17.7652 40.7357 15.5147 38.4853C13.2643 36.2348 12 33.1826 12 30V18Z" fill="#0B6FC0"/>
<path d="M12 18C12 14.8174 13.2643 11.7652 15.5147 9.51472C17.7652 7.26428 20.8174 6 24 6C27.1826 6 30.2348 7.26428 32.4853 9.51472C34.7357 11.7652 36 14.8174 36 18V30C36 33.1826 34.7357 36.2348 32.4853 38.4853C30.2348 40.7357 27.1826 42 24 42C20.8174 42 17.7652 40.7357 15.5147 38.4853C13.2643 36.2348 12 33.1826 12 30V18Z" stroke="#0B6FC0" stroke-width="2" stroke-linejoin="round"/>
<path d="M24 14V22" stroke="#0B6FC0" stroke-width="2" stroke-linecap="round" stroke-linejoin="round"/>
</svg>
