<svg width="25" height="24" viewBox="0 0 25 24" fill="none" xmlns="http://www.w3.org/2000/svg">
<path d="M19.0452 17.1352L24.0226 22.1114L22.3782 23.7558L17.402 18.7784C15.5504 20.2627 13.2474 21.07 10.8744 21.0666C5.10096 21.0666 0.415283 16.3809 0.415283 10.6075C0.415283 4.83411 5.10096 0.148438 10.8744 0.148438C16.6478 0.148438 21.3335 4.83411 21.3335 10.6075C21.3368 12.9806 20.5295 15.2836 19.0452 17.1352ZM16.714 16.2729C18.1886 14.756 19.0122 12.723 19.0092 10.6075C19.0092 6.11361 15.3683 2.47268 10.8744 2.47268C6.38045 2.47268 2.73953 6.11361 2.73953 10.6075C2.73953 15.1015 6.38045 18.7424 10.8744 18.7424C12.9899 18.7453 15.0228 17.9217 16.5397 16.4472L16.714 16.2729ZM12.2434 6.16358C11.9007 6.31837 11.6007 6.55399 11.3691 6.85022C11.1375 7.14645 10.9812 7.49445 10.9137 7.86435C10.8462 8.23426 10.8694 8.61502 10.9814 8.97397C11.0934 9.33292 11.2908 9.65935 11.5567 9.92523C11.8226 10.1911 12.149 10.3885 12.5079 10.5005C12.8669 10.6125 13.2476 10.6357 13.6175 10.5682C13.9875 10.5007 14.3354 10.3444 14.6317 10.1128C14.9279 9.88123 15.1635 9.58123 15.3183 9.23855C15.6237 10.2306 15.5883 11.2963 15.2178 12.2658C14.8472 13.2354 14.1628 14.053 13.2736 14.5885C12.3845 15.1239 11.3416 15.3464 10.3114 15.2204C9.28106 15.0944 8.32259 14.6272 7.58864 13.8933C6.85469 13.1593 6.3875 12.2008 6.2615 11.1706C6.13551 10.1403 6.35796 9.09745 6.89342 8.20826C7.42887 7.31908 8.24652 6.63468 9.21608 6.26413C10.1856 5.89357 11.2513 5.85817 12.2434 6.16358Z" fill="#0C74C2"/>
</svg>
