<svg width="18" height="18" viewBox="0 0 18 18" fill="none" xmlns="http://www.w3.org/2000/svg">
<path d="M11.9817 15.1484C11.5037 15.1484 11.098 14.9813 10.7648 14.6471C10.432 14.3124 10.2656 13.906 10.2656 13.428C10.2656 13.3559 10.2973 13.1739 10.3608 12.8819L5.16922 9.7996C5.01341 9.97945 4.82273 10.1206 4.59719 10.223C4.37165 10.3255 4.12951 10.3767 3.87079 10.3767C3.39662 10.3767 2.99362 10.2079 2.6618 9.87029C2.32997 9.5327 2.16406 9.12802 2.16406 8.65625C2.16406 8.18448 2.32997 7.77981 2.6618 7.44221C2.99362 7.10462 3.39662 6.93582 3.87079 6.93582C4.12903 6.93582 4.37117 6.98704 4.59719 7.08947C4.82321 7.1919 5.01389 7.33329 5.16922 7.51363L10.3615 4.44426C10.3279 4.35097 10.3036 4.25839 10.2887 4.16654C10.2733 4.07421 10.2656 3.97995 10.2656 3.88377C10.2656 3.40623 10.4332 3.00011 10.7684 2.6654C11.1036 2.33118 11.5104 2.16406 11.9889 2.16406C12.4674 2.16406 12.8733 2.33166 13.2066 2.66685C13.5398 3.00204 13.7062 3.40888 13.7057 3.88738C13.7052 4.36588 13.5381 4.77176 13.2044 5.10502C12.8706 5.43829 12.4643 5.60468 11.9853 5.6042C11.7247 5.6042 11.4842 5.55082 11.2639 5.44406C11.0437 5.3373 10.8561 5.19375 10.7013 5.01341L5.50826 8.09576C5.54192 8.18905 5.56621 8.28187 5.58112 8.3742C5.59651 8.46605 5.6042 8.56007 5.6042 8.65625C5.6042 8.75243 5.59651 8.84645 5.58112 8.9383C5.56573 9.03015 5.54168 9.12297 5.50898 9.21674L10.7013 12.2991C10.8566 12.1187 11.0442 11.9752 11.2639 11.8684C11.4842 11.7617 11.7247 11.7083 11.9853 11.7083C12.4633 11.7083 12.8697 11.8757 13.2044 12.2104C13.5386 12.546 13.7057 12.9531 13.7057 13.4316C13.7057 13.9101 13.5381 14.316 13.2029 14.6493C12.8678 14.9825 12.4602 15.1489 11.9817 15.1484Z" fill="#9197B3"/>
</svg>
