<svg width="25" height="25" viewBox="0 0 25 25" fill="none" xmlns="http://www.w3.org/2000/svg">
<g clip-path="url(#clip0_62_1323)">
<path d="M5.48814 9.32227C5.22354 9.32227 5.00879 9.53701 5.00879 9.80161C5.00879 10.0662 5.22354 10.281 5.48814 10.281C5.75274 10.281 5.96748 10.0662 5.96748 9.80161C5.96748 9.53701 5.75274 9.32227 5.48814 9.32227Z" fill="#0B6FC0"/>
<path d="M16.9914 10.2804H14.5946V7.88364C14.5946 7.61895 14.38 7.4043 14.1153 7.4043H11.2392C10.9745 7.4043 10.7599 7.61895 10.7599 7.88364V10.2804H8.36314C8.09844 10.2804 7.88379 10.495 7.88379 10.7597V13.6358C7.88379 13.9005 8.09844 14.1151 8.36314 14.1151H10.7599V16.5119C10.7599 16.7766 10.9745 16.9912 11.2392 16.9912H14.1153C14.38 16.9912 14.5946 16.7766 14.5946 16.5119V14.1151H16.9914C17.2561 14.1151 17.4707 13.9005 17.4707 13.6358V10.7597C17.4707 10.495 17.2561 10.2804 16.9914 10.2804ZM16.512 13.1565H14.1153C13.8506 13.1565 13.6359 13.3711 13.6359 13.6358V16.0325H11.7186V13.6358C11.7186 13.3711 11.5039 13.1565 11.2392 13.1565H8.84248V11.2391H11.2392C11.5039 11.2391 11.7186 11.0244 11.7186 10.7597V8.36299H13.6359V10.7597C13.6359 11.0244 13.8506 11.2391 14.1153 11.2391H16.512V13.1565Z" fill="#0B6FC0"/>
<path d="M20.0786 1.87981C19.3026 2.3837 18.4013 2.64997 17.4722 2.64997C16.0513 2.64997 14.712 2.02476 13.7976 0.934586C13.7976 0.934586 13.7976 0.934586 13.7976 0.934586C13.516 0.598851 13.1081 0.40625 12.6787 0.40625C12.2493 0.40625 11.8415 0.598851 11.5598 0.934538C10.6455 2.02472 9.30609 2.64993 7.88526 2.64993C6.95619 2.64993 6.05488 2.3836 5.27881 1.87976C4.331 1.26462 3.0918 1.98886 3.0918 3.10531V12.8826C3.0918 15.0574 3.78944 17.1823 5.05606 18.8658C8.18955 23.0322 12.3156 24.8351 12.4897 24.9098C12.5501 24.9357 12.6144 24.9487 12.6787 24.9487C12.743 24.9487 12.8074 24.9357 12.8677 24.9098C13.0418 24.8351 17.1679 23.0323 20.3013 18.8663C21.5681 17.1823 22.2657 15.0572 22.2657 12.8826V3.10535C22.2657 1.98881 21.0262 1.26462 20.0786 1.87981ZM19.5352 18.29C16.9294 21.7545 13.5115 23.5405 12.6784 23.9412C11.845 23.5415 8.43378 21.7621 5.8222 18.2895C4.67968 16.7711 4.05049 14.8509 4.05049 12.8826V3.10535C4.05049 2.74043 4.45319 2.4869 4.75676 2.68391C5.68866 3.2889 6.77049 3.60867 7.88526 3.60867C9.5903 3.60867 11.1974 2.85859 12.2943 1.55069C12.3948 1.4309 12.5313 1.36494 12.6787 1.36494C12.8262 1.36494 12.9626 1.4309 13.0631 1.55069C14.1601 2.85854 15.7672 3.60867 17.4722 3.60867C18.587 3.60867 19.6687 3.2889 20.6007 2.68391C20.8993 2.48992 21.307 2.73491 21.307 3.10535V12.8826C21.307 14.8507 20.6778 16.7711 19.5352 18.29Z" fill="#0B6FC0"/>
<path d="M20.1451 4.24246C20.0178 4.15264 19.855 4.1302 19.7082 4.18221C18.9871 4.43809 18.2346 4.5678 17.4718 4.5678C15.8241 4.5678 14.2352 3.95955 12.9975 2.85509C12.8157 2.69283 12.541 2.69283 12.3592 2.85509C11.1216 3.95955 9.53252 4.5678 7.88487 4.5678C7.12208 4.5678 6.36961 4.43809 5.64843 4.18221C5.50156 4.1302 5.33882 4.15264 5.2116 4.24246C5.08448 4.33229 5.00884 4.4783 5.00884 4.63399V7.88444C5.00884 8.14914 5.22349 8.36379 5.48818 8.36379C5.75288 8.36379 5.96753 8.14914 5.96753 7.88444V5.28193C6.59346 5.44443 7.23588 5.52654 7.88492 5.52654C9.6295 5.52654 11.3158 4.93057 12.6784 3.84015C14.0409 4.93057 15.7273 5.52654 17.4718 5.52654C18.1209 5.52654 18.7633 5.44443 19.3892 5.28193V12.8831C19.3892 14.4386 18.8968 15.9492 18.0023 17.1368C16.1897 19.5477 13.9759 21.0405 12.6829 21.7755C11.3796 21.0309 9.15159 19.5268 7.35428 17.1376C6.46001 15.9492 5.96748 14.4383 5.96748 12.883V11.7192C5.96748 11.4545 5.75283 11.2398 5.48814 11.2398C5.22344 11.2398 5.00879 11.4545 5.00879 11.7192V12.883C5.00879 14.6449 5.56972 16.3606 6.58819 17.7139C8.60389 20.3936 11.1267 22.0161 12.4511 22.7447C12.523 22.7843 12.6025 22.804 12.6821 22.804C12.7612 22.804 12.8404 22.7845 12.912 22.7453C14.2262 22.0271 16.7346 20.4182 18.7683 17.7132C19.7868 16.3607 20.3478 14.6453 20.3478 12.883V4.63395C20.3478 4.47826 20.2722 4.33229 20.1451 4.24246Z" fill="#0B6FC0"/>
</g>
<defs>
<clipPath id="clip0_62_1323">
<rect width="24.5424" height="24.5424" fill="white" transform="translate(0.407227 0.40625)"/>
</clipPath>
</defs>
</svg>
