<svg width="44" height="44" viewBox="0 0 44 44" fill="none" xmlns="http://www.w3.org/2000/svg">
<path d="M27.5003 41.7083H16.5003C6.54533 41.7083 2.29199 37.455 2.29199 27.5V16.5C2.29199 6.54496 6.54533 2.29163 16.5003 2.29163H27.5003C37.4553 2.29163 41.7087 6.54496 41.7087 16.5V27.5C41.7087 37.455 37.4553 41.7083 27.5003 41.7083ZM16.5003 5.04163C8.04866 5.04163 5.04199 8.04829 5.04199 16.5V27.5C5.04199 35.9516 8.04866 38.9583 16.5003 38.9583H27.5003C35.952 38.9583 38.9587 35.9516 38.9587 27.5V16.5C38.9587 8.04829 35.952 5.04163 27.5003 5.04163H16.5003Z" fill="#24BEE0"/>
<path d="M22.0011 23.9795C21.7628 23.9795 21.5244 23.9245 21.3044 23.7962L11.5878 18.1862C10.9278 17.8012 10.7078 16.9578 11.0928 16.3162C11.4778 15.6562 12.3211 15.4362 12.9628 15.8212L21.9828 21.0462L30.9478 15.8578C31.6078 15.4728 32.4511 15.7112 32.8178 16.3528C33.1844 16.9945 32.9644 17.8562 32.3228 18.2228L22.6794 23.7962C22.4778 23.9062 22.2394 23.9795 22.0011 23.9795Z" fill="#24BEE0"/>
<path d="M22 33.9536C21.2483 33.9536 20.625 33.3302 20.625 32.5786V22.6052C20.625 21.8536 21.2483 21.2302 22 21.2302C22.7517 21.2302 23.375 21.8536 23.375 22.6052V32.5786C23.375 33.3302 22.7517 33.9536 22 33.9536Z" fill="#24BEE0"/>
<path d="M22.0004 34.3746C20.937 34.3746 19.8922 34.1363 19.0489 33.6779L13.1821 30.4146C11.4221 29.4429 10.0654 27.1146 10.0654 25.0979V18.8829C10.0654 16.8846 11.4405 14.5563 13.1821 13.5663L19.0489 10.3029C20.7356 9.36793 23.2654 9.36793 24.952 10.3029L30.8187 13.5663C32.5787 14.5379 33.9356 16.8663 33.9356 18.8829V25.0979C33.9356 27.0963 32.5604 29.4246 30.8187 30.4146L24.952 33.6779C24.1087 34.1546 23.0637 34.3746 22.0004 34.3746ZM22.0004 12.3746C21.3954 12.3746 20.8087 12.4846 20.387 12.7229L14.5205 15.9863C13.6222 16.4813 12.8154 17.8746 12.8154 18.8829V25.0979C12.8154 26.1246 13.6222 27.4996 14.5205 27.9946L20.387 31.2579C21.2304 31.7346 22.7704 31.7346 23.6137 31.2579L29.4804 27.9946C30.3787 27.4996 31.1856 26.1063 31.1856 25.0979V18.8829C31.1856 17.8563 30.3787 16.4813 29.4804 15.9863L23.6137 12.7229C23.192 12.4846 22.6054 12.3746 22.0004 12.3746Z" fill="#24BEE0"/>
</svg>
