<svg width="42" height="42" viewBox="0 0 42 42" fill="none" xmlns="http://www.w3.org/2000/svg">
<path d="M21.1811 0.000908084C21.8689 0.000908084 22.5461 0.0455331 23.1761 0.150533C23.7968 0.230488 24.4091 0.365777 25.0058 0.554783C25.6007 0.733283 26.1905 0.963408 26.775 1.24516C27.3446 1.51553 27.93 1.84628 28.5154 2.20591C29.505 2.83591 30.4789 3.34516 31.4711 3.75203C33.424 4.53544 35.4898 5.00072 37.59 5.13016C38.6522 5.20891 39.7521 5.24916 40.8896 5.25091V15.7509C40.8896 17.7442 40.635 19.6394 40.1258 21.4367C39.6365 23.2117 38.9414 24.9234 38.0546 26.537C37.1717 28.1485 36.1268 29.6657 34.9361 31.0652C33.728 32.4971 32.4191 33.841 31.0196 35.0867C29.6004 36.3344 28.1076 37.4958 26.5493 38.5648C24.9883 39.6498 23.4185 40.6499 21.84 41.5652L21.21 41.9405L20.58 41.5652C18.9608 40.628 17.3793 39.6271 15.8393 38.5648C14.2726 37.5073 12.779 36.3453 11.3689 35.0867C9.97027 33.841 8.66232 32.497 7.455 31.0652C6.26837 29.6591 5.21885 28.1428 4.32075 26.537C3.44994 24.9159 2.75559 23.206 2.24963 21.4367C1.74054 19.5847 1.48793 17.6716 1.49888 15.7509V5.25091C2.63638 5.24916 3.73713 5.20891 4.80113 5.13016C5.8504 5.05883 6.89283 4.90879 7.91963 4.68128C8.925 4.45553 9.93038 4.15628 10.92 3.75203C11.9467 3.33704 12.9312 2.82457 13.86 2.22166C15.015 1.47091 16.1858 0.917033 17.3407 0.552158C18.5847 0.171243 19.8802 -0.014711 21.1811 0.000908084ZM38.2489 7.83128C36.2619 7.73403 34.2935 7.40184 32.3846 6.84166C30.4866 6.274 28.6784 5.44061 27.0139 4.36628C26.1502 3.80088 25.2131 3.35661 24.2287 3.04591C23.2449 2.74918 22.2219 2.60228 21.1943 2.61016C20.159 2.60385 19.1284 2.75069 18.1361 3.04591C17.1506 3.34735 16.2148 3.79225 15.3589 4.36628C13.6909 5.4454 11.8782 6.28237 9.975 6.85216C8.11475 7.39291 6.16438 7.72366 4.12388 7.84441V15.764C4.12388 17.5018 4.34963 19.1713 4.80113 20.7725C5.2615 22.3623 5.89531 23.8967 6.69113 25.3479C7.49681 26.8141 8.44649 28.1964 9.52613 29.4744C10.6208 30.7633 11.7889 31.9629 13.0489 33.1022C14.3089 34.2414 15.6293 35.2967 17.01 36.2679C18.4048 37.2409 19.7995 38.1308 21.1943 38.9375C22.6222 38.1077 24.0138 37.217 25.3654 36.2679C26.7569 35.2993 28.0844 34.2419 29.3396 33.1022C30.5996 31.9629 31.7704 30.7633 32.865 29.4744C33.9446 28.1964 34.8943 26.8141 35.7 25.3479C36.4918 23.8983 37.1162 22.3633 37.5611 20.7725C38.0268 19.1441 38.2584 17.4577 38.2489 15.764V7.83128Z" fill="#24BEE0"/>
<path fill-rule="evenodd" clip-rule="evenodd" d="M30.9669 12.3614L29.8119 11.3691L28.7462 11.461L17.3012 24.9745L13.403 19.4095L12.353 19.231L11.1377 20.0999L10.9565 21.1499L15.9677 28.3056L16.5373 28.6206L17.7369 28.6941L18.3512 28.4264L31.043 13.4245L30.9669 12.3614Z" fill="#24BEE0"/>
</svg>
