<svg width="19" height="25" viewBox="0 0 19 25" fill="none" xmlns="http://www.w3.org/2000/svg">
<path d="M18.599 23.7249C18.3092 21.9667 17.9358 20.442 17.3059 18.7468C16.1946 15.7564 14.7074 13.5574 12.8792 12.1978C16.173 9.75527 17.9478 4.70986 18.5581 0.658382C18.6008 0.374174 18.3762 0.121198 18.0919 0.121009C17.4335 0.12049 16.7253 0.119594 16.1834 0.118131C16.183 0.118131 16.1826 0.118131 16.1822 0.118131C15.9515 0.118131 15.7547 0.280192 15.7168 0.507786C15.6711 0.782606 15.5635 1.37612 15.3751 2.1459H7.57238C7.31186 2.1459 7.10059 2.35717 7.10059 2.61769C7.10059 2.87822 7.31186 3.08477 7.57238 3.08477H15.1249C14.9446 3.71532 14.719 4.41334 14.4416 5.1182H4.75218C3.92994 3.0491 3.55812 1.08446 3.4607 0.51005C3.42215 0.283212 3.2256 0.117188 2.99551 0.117188H1.08616C0.798411 0.117188 0.577847 0.372853 0.619271 0.657014C1.18764 4.56087 3.06661 9.73947 6.34152 12.1898C3.02712 14.6451 1.30134 19.6358 0.659609 23.7352C0.619365 24.0199 0.840872 24.273 1.12673 24.273H3.03514C3.26575 24.273 3.46254 24.1063 3.50047 23.8789C3.54633 23.6044 3.65399 23.0121 3.84195 22.2443H11.6449C11.9054 22.2443 12.1167 22.033 12.1167 21.7725C12.1167 21.512 11.9054 21.3007 11.6449 21.3007H4.09215C4.27251 20.67 4.49812 19.9765 4.77544 19.272H14.4838C15.0654 20.7244 15.4804 22.1964 15.7398 23.7783C15.7467 23.8205 15.7526 23.8564 15.7576 23.8856C15.7959 24.1127 15.9926 24.2645 16.2227 24.2645C16.2235 24.2645 16.2242 24.2645 16.225 24.2645C16.81 24.2617 17.5563 24.265 18.1343 24.2641C18.4242 24.2636 18.6465 24.0128 18.599 23.7249ZM16.577 1.0579C16.8781 1.05846 17.2079 1.05894 17.5402 1.05931C16.9017 4.76115 15.163 9.53655 12.032 11.6421C11.7014 11.4529 11.3604 11.2892 11.0109 11.1517C14.2179 9.37237 15.8981 4.65023 16.577 1.0579ZM9.60704 10.7307C8.63703 10.4358 7.74034 9.81911 6.93187 8.89255H12.2745C11.4694 9.81793 10.5753 10.4346 9.60704 10.7307ZM14.0395 6.05707C13.717 6.75627 13.3666 7.39281 12.993 7.94897H6.21069C5.83509 7.39267 5.48252 6.75613 5.15764 6.05707H14.0395ZM2.63982 23.3294H1.67746C2.31584 19.6288 4.05459 14.8522 7.18702 12.747C7.51718 12.9364 7.85786 13.1005 8.20718 13.2382C4.99893 15.0175 3.30996 19.7593 2.63982 23.3294ZM9.61058 13.6597C10.5826 13.9548 11.482 14.5713 12.2938 15.4977H6.94296C7.74803 14.5723 8.64222 13.9558 9.61058 13.6597ZM5.17765 18.3284C5.5004 17.629 5.8509 16.9972 6.22437 16.4413H13.0181C13.3948 16.9967 13.7491 17.6286 14.0759 18.3284H5.17765ZM16.6221 23.3335C15.9142 19.2172 13.6825 13.6249 9.50376 12.6553C4.86622 11.5912 2.48097 5.72691 1.63957 1.06078H2.6018C3.39361 5.17831 5.45341 10.5733 9.48263 11.6768C9.48602 11.6778 9.48951 11.6787 9.49291 11.6796C9.84303 11.7756 10.7013 11.9171 11.7964 12.6002C14.1831 14.088 15.6288 16.9427 16.4214 19.0755C17.1056 20.9166 17.4472 22.5843 17.5792 23.331C17.2641 23.3316 16.9326 23.3324 16.6221 23.3335Z" fill="#0B6FC0"/>
</svg>
