<svg width="19" height="18" viewBox="0 0 19 18" fill="none" xmlns="http://www.w3.org/2000/svg">
<g clip-path="url(#clip0_62_857)">
<path d="M9.57544 6.49219C10.0206 6.49219 10.4405 6.57672 10.835 6.74579C11.2295 6.91486 11.5733 7.14591 11.8663 7.43896C12.1594 7.73202 12.3932 8.0786 12.5679 8.47873C12.7426 8.87886 12.8272 9.29871 12.8215 9.73828C12.8215 10.1891 12.737 10.609 12.5679 10.9978C12.3989 11.3867 12.1678 11.7305 11.8748 12.0291C11.5817 12.3278 11.2351 12.5617 10.835 12.7308C10.4349 12.8998 10.015 12.9844 9.57544 12.9844C9.12459 12.9844 8.70474 12.8998 8.31589 12.7308C7.92703 12.5617 7.58326 12.3306 7.28458 12.0376C6.98589 11.7445 6.75201 11.4008 6.58295 11.0063C6.41388 10.6118 6.32935 10.1891 6.32935 9.73828C6.32935 9.29307 6.41388 8.87322 6.58295 8.47873C6.75201 8.08424 6.98307 7.74047 7.27612 7.44742C7.56917 7.15437 7.91294 6.92049 8.30743 6.74579C8.70192 6.57109 9.12459 6.48655 9.57544 6.49219ZM9.57544 11.9023C9.87413 11.9023 10.1531 11.846 10.4123 11.7333C10.6716 11.6206 10.9026 11.4656 11.1055 11.2683C11.3084 11.0711 11.4634 10.8429 11.5704 10.5836C11.6775 10.3244 11.7339 10.0426 11.7395 9.73828C11.7395 9.4396 11.6831 9.16063 11.5704 8.9014C11.4577 8.64216 11.3027 8.4111 11.1055 8.20822C10.9083 8.00534 10.68 7.85036 10.4208 7.74329C10.1615 7.63621 9.87976 7.57985 9.57544 7.57422C9.27675 7.57422 8.99779 7.63057 8.73856 7.74329C8.47932 7.856 8.24826 8.01098 8.04538 8.20822C7.8425 8.40547 7.68752 8.63371 7.58044 8.89294C7.47337 9.15218 7.41701 9.43396 7.41138 9.73828C7.41138 10.037 7.46773 10.3159 7.58044 10.5752C7.69316 10.8344 7.84813 11.0655 8.04538 11.2683C8.24262 11.4712 8.47087 11.6262 8.7301 11.7333C8.98934 11.8404 9.27112 11.8967 9.57544 11.9023ZM9.57544 2.16406C10.3813 2.16406 11.1816 2.26269 11.9762 2.45993C12.7708 2.65718 13.5203 2.95304 14.2248 3.34753C14.9292 3.74202 15.5661 4.22105 16.1353 4.78461C16.7044 5.34816 17.1722 6.00753 17.5385 6.7627C17.7639 7.23045 17.9358 7.71229 18.0542 8.20822C18.1725 8.70415 18.2317 9.21417 18.2317 9.73828H17.1497C17.1497 9.07328 17.0482 8.45055 16.8453 7.87009C16.6425 7.28962 16.3635 6.75988 16.0085 6.28085C15.6534 5.80183 15.2307 5.37352 14.7404 4.99594C14.2502 4.61836 13.7289 4.29995 13.1766 4.04071C12.6243 3.78147 12.0354 3.58423 11.4098 3.44897C10.7843 3.31372 10.1728 3.24609 9.57544 3.24609C8.9668 3.24609 8.35534 3.31372 7.74106 3.44897C7.12678 3.58423 6.54068 3.78147 5.98276 4.04071C5.42484 4.29995 4.90073 4.61836 4.41043 4.99594C3.92014 5.37352 3.50028 5.80183 3.15088 6.28085C2.80147 6.75988 2.51969 7.28962 2.30554 7.87009C2.09139 8.45055 1.98995 9.07328 2.00122 9.73828H0.919189C0.919189 9.21981 0.978363 8.71261 1.09671 8.21667C1.21506 7.72074 1.38694 7.23608 1.61237 6.7627C1.97304 6.0188 2.43798 5.36225 3.00717 4.79306C3.57637 4.22387 4.216 3.74202 4.92609 3.34753C5.63617 2.95304 6.3857 2.65999 7.17468 2.46838C7.96366 2.27677 8.76392 2.17533 9.57544 2.16406Z" fill="#9197B3"/>
</g>
<defs>
<clipPath id="clip0_62_857">
<rect width="17.3125" height="17.3125" fill="white" transform="translate(0.919189)"/>
</clipPath>
</defs>
</svg>
